<svg width="16" height="17" viewBox="0 0 16 17" fill="none" xmlns="http://www.w3.org/2000/svg">
<path d="M14 9.33634C12.0937 10.1072 10.0563 10.5022 8 10.4997C5.878 10.4997 3.85333 10.0863 2 9.33634M8 8.49967H8.00667M10.6667 4.49967V3.16634C10.6667 2.81272 10.5262 2.47358 10.2761 2.22353C10.0261 1.97348 9.68696 1.83301 9.33333 1.83301H6.66667C6.31304 1.83301 5.97391 1.97348 5.72386 2.22353C5.47381 2.47358 5.33333 2.81272 5.33333 3.16634V4.49967H10.6667ZM3.33333 13.833H12.6667C13.0203 13.833 13.3594 13.6925 13.6095 13.4425C13.8595 13.1924 14 12.8533 14 12.4997V5.83301C14 5.47939 13.8595 5.14025 13.6095 4.8902C13.3594 4.64015 13.0203 4.49967 12.6667 4.49967H3.33333C2.97971 4.49967 2.64057 4.64015 2.39052 4.8902C2.14048 5.14025 2 5.47939 2 5.83301V12.4997C2 12.8533 2.14048 13.1924 2.39052 13.4425C2.64057 13.6925 2.97971 13.833 3.33333 13.833Z" stroke="white" stroke-opacity="0.66" stroke-linecap="round" stroke-linejoin="round"/>
</svg>
