<svg width="16" height="17" viewBox="0 0 16 17" fill="none" xmlns="http://www.w3.org/2000/svg">
<path d="M8 3.40267C8.35829 2.99647 8.83179 2.70901 9.35747 2.57853C9.88316 2.44805 10.4361 2.48075 10.9428 2.67227C11.4494 2.86379 11.8857 3.20505 12.1937 3.65064C12.5016 4.09623 12.6665 4.62503 12.6665 5.16667C12.6665 5.70831 12.5016 6.2371 12.1937 6.68269C11.8857 7.12829 11.4494 7.46955 10.9428 7.66107C10.4361 7.85259 9.88316 7.88528 9.35747 7.75481C8.83179 7.62433 8.35829 7.33687 8 6.93067M10 14.5H2V13.8333C2 12.7725 2.42143 11.7551 3.17157 11.0049C3.92172 10.2548 4.93913 9.83333 6 9.83333C7.06087 9.83333 8.07828 10.2548 8.82843 11.0049C9.57857 11.7551 10 12.7725 10 13.8333V14.5ZM10 14.5H14V13.8333C14.0001 13.1311 13.8153 12.4413 13.4643 11.8331C13.1133 11.225 12.6083 10.7199 12.0002 10.3688C11.3922 10.0177 10.7023 9.83279 10.0001 9.83277C9.29795 9.83274 8.60812 10.0176 8 10.3687M8.66667 5.16667C8.66667 5.87391 8.38572 6.55219 7.88562 7.05229C7.38552 7.55238 6.70724 7.83333 6 7.83333C5.29276 7.83333 4.61448 7.55238 4.11438 7.05229C3.61428 6.55219 3.33333 5.87391 3.33333 5.16667C3.33333 4.45942 3.61428 3.78115 4.11438 3.28105C4.61448 2.78095 5.29276 2.5 6 2.5C6.70724 2.5 7.38552 2.78095 7.88562 3.28105C8.38572 3.78115 8.66667 4.45942 8.66667 5.16667Z" stroke="#3BE7DC" stroke-width="2" stroke-linecap="round" stroke-linejoin="round"/>
</svg>
