<svg width="29" height="30" viewBox="0 0 29 30" fill="none" xmlns="http://www.w3.org/2000/svg">
<path d="M10.875 15L13.2917 17.4167L18.125 12.5833M25.375 15C25.375 16.4281 25.0937 17.8423 24.5472 19.1617C24.0007 20.4811 23.1996 21.6799 22.1898 22.6898C21.1799 23.6996 19.9811 24.5007 18.6617 25.0472C17.3423 25.5937 15.9281 25.875 14.5 25.875C13.0719 25.875 11.6577 25.5937 10.3383 25.0472C9.0189 24.5007 7.82005 23.6996 6.81021 22.6898C5.80038 21.6799 4.99933 20.4811 4.45281 19.1617C3.90629 17.8423 3.625 16.4281 3.625 15C3.625 12.1158 4.77076 9.34967 6.81021 7.31021C8.84967 5.27076 11.6158 4.125 14.5 4.125C17.3842 4.125 20.1503 5.27076 22.1898 7.31021C24.2292 9.34967 25.375 12.1158 25.375 15Z" stroke="#3BE7DC" stroke-width="2.5" stroke-linecap="round" stroke-linejoin="round"/>
</svg>
