<svg width="16" height="17" viewBox="0 0 16 17" fill="none" xmlns="http://www.w3.org/2000/svg">
<path d="M2.22836 5.68498C2.37913 5.321 2.60011 4.99028 2.87869 4.7117C3.15727 4.43312 3.48799 4.21214 3.85197 4.06137C4.21595 3.91061 4.60606 3.83301 5.00003 3.83301C5.39399 3.83301 5.78411 3.91061 6.14808 4.06137C6.51206 4.21214 6.84278 4.43312 7.12136 4.7117L8.00003 5.59037L8.87869 4.7117C9.4413 4.14909 10.2044 3.83302 11 3.83302C11.7957 3.83302 12.5587 4.14909 13.1214 4.7117C13.684 5.27431 14 6.03738 14 6.83303C14 7.62869 13.684 8.39176 13.1214 8.95437L8.00003 14.0757L2.87869 8.95437C2.60011 8.67579 2.37913 8.34507 2.22836 7.98109C2.0776 7.61711 2 7.227 2 6.83303C2 6.43907 2.0776 6.04895 2.22836 5.68498Z" stroke="#EBEBF0" stroke-width="2" stroke-linecap="round" stroke-linejoin="round"/>
</svg>
