<svg width="81" height="80" viewBox="0 0 81 80" fill="none" xmlns="http://www.w3.org/2000/svg">
<path d="M69.8335 49.788L67.2802 50.8947C66.0775 51.416 64.8469 51.8547 63.5975 52.208L63.1095 47.7507C63.0375 47.0947 62.9375 46.4493 62.8095 45.8133C61.6682 40.1173 58.3402 35.2533 53.7429 32.028C51.9469 30.7667 49.9562 29.756 47.8282 29.044C45.5255 28.2733 43.0602 27.852 40.5002 27.8413C38.3935 27.8507 36.3495 28.1373 34.4082 28.6693C34.0229 26.6893 33.9282 24.668 34.1309 22.6587C34.1455 22.508 34.1629 22.3573 34.1815 22.208C36.2389 21.7533 38.3522 21.516 40.4882 21.508H40.5122C43.1109 21.5173 45.6762 21.8667 48.1469 22.5333C50.4229 23.1467 52.6202 24.0293 54.6882 25.1627C56.5482 26.1813 58.3042 27.4027 59.9215 28.8133C64.3602 32.684 67.4522 37.7267 68.8535 43.2853C69.1669 44.5253 69.3949 45.7907 69.5349 47.0747L69.8322 49.7867L69.8335 49.788ZM16.8522 43.9493C17.3869 44.1813 17.9335 44.392 18.4789 44.5773C19.7082 39.8773 22.4469 35.8107 26.1429 32.864C26.0949 32.6933 26.0469 32.5227 26.0015 32.352C25.4415 30.2467 25.1162 28.0827 25.0322 25.9067C23.6442 26.76 22.3215 27.7307 21.0789 28.8133C16.9695 32.3973 14.0162 36.984 12.4882 42.056L16.8522 43.9493ZM48.4909 21.312C50.6309 21.8893 52.7069 22.696 54.6722 23.712C54.6122 22.1067 54.4162 20.4987 54.0802 18.904C52.9682 13.6253 50.3909 8.824 46.6735 4.99067L42.8189 7.748C42.3469 8.08533 41.8882 8.444 41.4495 8.81333C44.9882 12.2067 47.2122 16.564 47.9682 21.176C48.1429 21.22 48.3175 21.2653 48.4909 21.312ZM61.8255 47.8867C61.7629 47.3173 61.6762 46.748 61.5682 46.192C59.5589 46.7427 57.5162 47.0107 55.4895 47.0107C52.7055 47.0107 49.9549 46.5067 47.3762 45.5413C47.2482 45.6693 47.1202 45.796 46.9895 45.9227C45.4122 47.448 43.6642 48.804 41.7855 49.9613C43.2362 50.7147 44.7575 51.3533 46.3375 51.8667C49.3429 52.8427 52.4495 53.328 55.5469 53.328C57.8309 53.328 60.1082 53.0627 62.3362 52.5373L61.8269 47.888L61.8255 47.8867ZM25.5055 47.016C23.0629 47.016 20.5935 46.628 18.1909 45.8213C17.5655 45.612 16.9442 45.3747 16.3295 45.108L12.1469 43.2933C11.8349 44.5307 11.6069 45.7947 11.4669 47.076L11.1695 49.796L13.7149 50.9C14.9202 51.4227 16.1522 51.8613 17.4055 52.216C20.0282 52.96 22.7362 53.3333 25.4509 53.3333L25.4455 53.328C28.5429 53.328 31.6495 52.8427 34.6549 51.8667C36.7082 51.2 38.6629 50.3213 40.4909 49.2547C42.5255 48.0667 44.4042 46.6453 46.0842 45.02C47.9109 43.2547 50.8229 39.032 50.8269 39.024L50.8215 39.0493C50.8215 39.0493 50.8295 39.036 50.8335 39.0293C51.8949 37.212 52.7415 35.2987 53.3682 33.3267C53.2442 33.236 53.1202 33.1467 52.9949 33.0587C51.3215 31.884 49.4882 30.952 47.5442 30.288C47.0429 32.2013 46.2749 34.08 45.2295 35.8733L45.2242 35.8693C43.9335 38.0387 42.3269 39.9227 40.4922 41.4933C38.7975 42.9427 36.9109 44.1253 34.8989 45.02C31.9589 46.3253 28.7549 47.0133 25.5042 47.0133L25.5095 47.0173L25.5055 47.016ZM32.8455 22.536C33.3975 17.0213 36.0322 11.764 40.4935 7.94667C40.9909 7.52 41.5122 7.112 42.0549 6.724L45.7495 4.08133C44.8122 3.19733 43.8095 2.37333 42.7469 1.61333L40.4922 0L38.2442 1.608C37.1802 2.36933 36.1749 3.196 35.2362 4.08267C31.0242 8.052 28.1149 13.1973 26.9135 18.9C26.4762 20.9787 26.2749 23.08 26.3042 25.168C26.3362 27.4893 26.6549 29.7947 27.2509 32.0333C27.8989 34.4627 28.8722 36.8147 30.1629 39.0253C30.1669 39.032 30.1709 39.0387 30.1749 39.0467C31.2482 40.8533 32.5135 42.5267 33.9415 44.044C34.0815 43.9853 34.2202 43.9267 34.3589 43.8653C36.2375 43.0307 37.9789 41.9387 39.5375 40.6213C38.0989 39.24 36.8255 37.6507 35.7655 35.8693C34.4949 33.692 33.6349 31.388 33.1642 29.048C32.7282 26.8853 32.6269 24.6907 32.8429 22.5373L32.8455 22.536Z" fill="white"/>
<path d="M3.72933 80H0.5V64H3.72933V80Z" fill="white"/>
<path d="M13.268 80H10.0387V66.7613H5.52533V64H17.7907V66.7613H13.2667V80H13.268Z" fill="white"/>
<path d="M32.988 80H29.7587V73.2587H22.808V80H19.5787V64H22.808V70.4973H29.7587V64H32.988V80Z" fill="white"/>
<path d="M38.784 74.1453V80H35.5547V64H41.928C43.6893 64 45.06 64.4533 46.04 65.3587C47.02 66.264 47.5107 67.512 47.5107 69.1013C47.5107 70.144 47.2627 71.0733 46.768 71.8893C46.272 72.7067 45.5867 73.292 44.7093 73.6467L47.96 80H44.3027L41.4267 74.1453H38.784ZM38.784 66.616V71.716H41.6173C42.4307 71.716 43.0627 71.4907 43.516 71.04C43.968 70.5893 44.1947 69.964 44.1947 69.1667C44.1947 68.3693 43.96 67.772 43.4893 67.3093C43.0187 66.848 42.384 66.616 41.5853 66.616H38.784Z" fill="white"/>
<path d="M52.856 80H49.6267V64H52.856V80Z" fill="white"/>
<path d="M59.6267 80L54.44 64H58.0547L61.584 76.552H61.6587L65.188 64H68.7067L63.52 80H59.6267Z" fill="white"/>
<path d="M80.5 77.228V80H70.2773V64H80.5V66.7613H73.5067V70.62H80.1053V73.192H73.5067V77.228H80.5Z" fill="white"/>
</svg>
