<svg width="32" height="32" viewBox="0 0 32 32" fill="none" xmlns="http://www.w3.org/2000/svg">
<path d="M19.9997 22.6667H26.6663L24.793 20.7933C24.5414 20.5417 24.3419 20.243 24.2058 19.9142C24.0697 19.5855 23.9996 19.2331 23.9997 18.8773V14.6667C23.9999 13.0119 23.4871 11.3978 22.532 10.0465C21.5769 8.69525 20.2263 7.67329 18.6663 7.12133V6.66667C18.6663 5.95942 18.3854 5.28115 17.8853 4.78105C17.3852 4.28095 16.7069 4 15.9997 4C15.2924 4 14.6142 4.28095 14.1141 4.78105C13.614 5.28115 13.333 5.95942 13.333 6.66667V7.12133C10.2263 8.22 7.99967 11.184 7.99967 14.6667V18.8787C7.99967 19.596 7.71434 20.2853 7.20634 20.7933L5.33301 22.6667H11.9997M19.9997 22.6667H11.9997M19.9997 22.6667V24C19.9997 25.0609 19.5782 26.0783 18.8281 26.8284C18.078 27.5786 17.0605 28 15.9997 28C14.9388 28 13.9214 27.5786 13.1712 26.8284C12.4211 26.0783 11.9997 25.0609 11.9997 24V22.6667" stroke="white" stroke-width="2" stroke-linecap="round" stroke-linejoin="round"/>
</svg>
