<svg width="17" height="17" viewBox="0 0 17 17" fill="none" xmlns="http://www.w3.org/2000/svg">
<path d="M13.4583 14.1673H3.54167C3.16594 14.1673 2.80561 14.0181 2.53993 13.7524C2.27426 13.4867 2.125 13.1264 2.125 12.7507V4.25065C2.125 3.87493 2.27426 3.51459 2.53993 3.24892C2.80561 2.98324 3.16594 2.83398 3.54167 2.83398H10.625C11.0007 2.83398 11.3611 2.98324 11.6267 3.24892C11.8924 3.51459 12.0417 3.87493 12.0417 4.25065V4.95898M13.4583 14.1673C13.0826 14.1673 12.7223 14.0181 12.4566 13.7524C12.1909 13.4867 12.0417 13.1264 12.0417 12.7507V4.95898M13.4583 14.1673C13.8341 14.1673 14.1944 14.0181 14.4601 13.7524C14.7257 13.4867 14.875 13.1264 14.875 12.7507V6.37565C14.875 5.99993 14.7257 5.63959 14.4601 5.37392C14.1944 5.10824 13.8341 4.95898 13.4583 4.95898H12.0417M9.20833 2.83398H6.375M4.95833 11.334H9.20833M4.95833 5.66732H9.20833V8.50065H4.95833V5.66732Z" stroke="#EBEBF0" stroke-width="1.5" stroke-linecap="round" stroke-linejoin="round"/>
</svg>
