<svg width="19" height="19" viewBox="0 0 19 19" fill="none" xmlns="http://www.w3.org/2000/svg">
<path d="M9.125 5.95833V9.125L11.5 11.5M16.25 9.125C16.25 10.0607 16.0657 10.9872 15.7076 11.8516C15.3496 12.7161 14.8248 13.5015 14.1631 14.1631C13.5015 14.8248 12.7161 15.3496 11.8516 15.7076C10.9872 16.0657 10.0607 16.25 9.125 16.25C8.18933 16.25 7.26283 16.0657 6.39838 15.7076C5.53394 15.3496 4.74848 14.8248 4.08686 14.1631C3.42525 13.5015 2.90042 12.7161 2.54236 11.8516C2.18429 10.9872 2 10.0607 2 9.125C2 7.23533 2.75067 5.42306 4.08686 4.08686C5.42306 2.75067 7.23533 2 9.125 2C11.0147 2 12.8269 2.75067 14.1631 4.08686C15.4993 5.42306 16.25 7.23533 16.25 9.125Z" stroke="#EBEBF0" stroke-opacity="0.66" stroke-width="1.4" stroke-linecap="round" stroke-linejoin="round"/>
</svg>
