<svg width="20" height="20" viewBox="0 0 20 20" fill="none" xmlns="http://www.w3.org/2000/svg">
<path d="M10.0078 7.5V10M10.0078 10V12.5M10.0078 10H12.5078M10.0078 10H7.50781M17.5078 10C17.5078 10.9849 17.3138 11.9602 16.9369 12.8701C16.56 13.7801 16.0076 14.6069 15.3111 15.3033C14.6147 15.9997 13.7879 16.5522 12.8779 16.9291C11.968 17.306 10.9927 17.5 10.0078 17.5C9.0229 17.5 8.04763 17.306 7.13769 16.9291C6.22774 16.5522 5.40095 15.9997 4.70451 15.3033C4.00807 14.6069 3.45563 13.7801 3.07872 12.8701C2.70181 11.9602 2.50781 10.9849 2.50781 10C2.50781 8.01088 3.29799 6.10322 4.70451 4.6967C6.11103 3.29018 8.01869 2.5 10.0078 2.5C11.9969 2.5 13.9046 3.29018 15.3111 4.6967C16.7176 6.10322 17.5078 8.01088 17.5078 10Z" stroke="#EBEBF0" stroke-width="2" stroke-linecap="round" stroke-linejoin="round"/>
</svg>
