<svg width="25" height="24" viewBox="0 0 25 24" fill="none" xmlns="http://www.w3.org/2000/svg">
<path d="M12.0246 4C5.53427 4 2.20039 11.0512 2.0668 11.3348C2.0227 11.4385 2 11.5497 2 11.662C2 11.7744 2.0227 11.8856 2.0668 11.9893C2.20039 12.2729 5.57398 19.2988 12.0643 19.2988C18.5547 19.2988 21.7996 12.2729 21.9332 11.9893C21.9773 11.8856 22 11.7744 22 11.662C22 11.5497 21.9773 11.4385 21.9332 11.3348C21.7996 11.0512 18.5149 4 12.0246 4ZM4.08221 11.662C4.73904 10.4076 7.422 5.93504 12.0643 5.93504C16.7066 5.93504 19.3896 10.4076 20.0464 11.662C19.3896 12.9165 16.7066 17.389 12.0643 17.389C7.422 17.389 4.73904 12.9165 4.08221 11.662Z" fill="#B9BFCA"/>
<path d="M12.0643 8.11677C11.3487 8.11677 10.6493 8.32468 10.0542 8.71423C9.45923 9.10377 8.99549 9.65749 8.72164 10.3054C8.4478 10.9531 8.37615 11.666 8.51575 12.3537C8.65535 13.0414 8.99994 13.6732 9.50594 14.169C10.0119 14.6648 10.6566 15.0024 11.3585 15.1392C12.0603 15.276 12.7879 15.2058 13.4489 14.9375C14.1101 14.6691 14.6752 14.2147 15.0727 13.6317C15.4703 13.0486 15.6825 12.3633 15.6825 11.6621C15.6796 10.7227 15.2974 9.82254 14.6195 9.15832C13.9416 8.49409 13.023 8.1196 12.0643 8.11677ZM12.0643 13.5711C11.679 13.5711 11.3023 13.4591 10.982 13.2494C10.6616 13.0396 10.4119 12.7415 10.2644 12.3926C10.117 12.0437 10.0784 11.66 10.1535 11.2896C10.2288 10.9193 10.4143 10.5792 10.6868 10.3122C10.9592 10.0452 11.3063 9.86334 11.6843 9.78971C12.0622 9.71607 12.4539 9.75393 12.8099 9.89835C13.1659 10.0429 13.4702 10.2876 13.6843 10.6015C13.8983 10.9154 14.0126 11.2845 14.0126 11.6621C14.0097 12.1674 13.8035 12.6514 13.4387 13.0087C13.074 13.3662 12.5801 13.5682 12.0643 13.5711Z" fill="#B9BFCA"/>
</svg>
