<svg width="32" height="32" viewBox="0 0 32 32" fill="none" xmlns="http://www.w3.org/2000/svg">
<path d="M28 17.6727C24.1873 19.2143 20.1126 20.0044 16 19.9993C11.756 19.9993 7.70667 19.1727 4 17.6727M16 15.9993H16.0133M21.3333 7.99935V5.33268C21.3333 4.62544 21.0524 3.94716 20.5523 3.44706C20.0522 2.94697 19.3739 2.66602 18.6667 2.66602H13.3333C12.6261 2.66602 11.9478 2.94697 11.4477 3.44706C10.9476 3.94716 10.6667 4.62544 10.6667 5.33268V7.99935H21.3333ZM6.66667 26.666H25.3333C26.0406 26.666 26.7189 26.3851 27.219 25.885C27.719 25.3849 28 24.7066 28 23.9993V10.666C28 9.95877 27.719 9.28049 27.219 8.7804C26.7189 8.2803 26.0406 7.99935 25.3333 7.99935H6.66667C5.95942 7.99935 5.28115 8.2803 4.78105 8.7804C4.28095 9.28049 4 9.95877 4 10.666V23.9993C4 24.7066 4.28095 25.3849 4.78105 25.885C5.28115 26.3851 5.95942 26.666 6.66667 26.666Z" stroke="#EBEBF0" stroke-width="2" stroke-linecap="round" stroke-linejoin="round"/>
</svg>
