<svg width="16" height="17" viewBox="0 0 16 17" fill="none" xmlns="http://www.w3.org/2000/svg">
<g clip-path="url(#clip0_584_31542)">
<path d="M14 9.33659C12.0937 10.1074 10.0563 10.5024 8 10.4999C5.878 10.4999 3.85333 10.0866 2 9.33659M8 8.49992H8.00667M10.6667 4.49992V3.16659C10.6667 2.81296 10.5262 2.47382 10.2761 2.22378C10.0261 1.97373 9.68696 1.83325 9.33333 1.83325H6.66667C6.31304 1.83325 5.97391 1.97373 5.72386 2.22378C5.47381 2.47382 5.33333 2.81296 5.33333 3.16659V4.49992H10.6667ZM3.33333 13.8333H12.6667C13.0203 13.8333 13.3594 13.6928 13.6095 13.4427C13.8595 13.1927 14 12.8535 14 12.4999V5.83325C14 5.47963 13.8595 5.14049 13.6095 4.89044C13.3594 4.64039 13.0203 4.49992 12.6667 4.49992H3.33333C2.97971 4.49992 2.64057 4.64039 2.39052 4.89044C2.14048 5.14049 2 5.47963 2 5.83325V12.4999C2 12.8535 2.14048 13.1927 2.39052 13.4427C2.64057 13.6928 2.97971 13.8333 3.33333 13.8333Z" stroke="#EBEBF5" stroke-opacity="0.6" stroke-width="2" stroke-linecap="round" stroke-linejoin="round"/>
</g>
<defs>
<clipPath id="clip0_584_31542">
<rect width="16" height="16" fill="white" transform="translate(0 0.5)"/>
</clipPath>
</defs>
</svg>
