<svg width="32" height="32" viewBox="0 0 32 32" fill="none" xmlns="http://www.w3.org/2000/svg">
<path d="M28 20.728C27.3027 20.728 26.6053 20.9293 26 21.3333C25.4077 21.7282 24.7118 21.9389 24 21.9389C23.2882 21.9389 22.5923 21.7282 22 21.3333C21.4077 20.9385 20.7118 20.7277 20 20.7277C19.2882 20.7277 18.5923 20.9385 18 21.3333C17.4077 21.7282 16.7118 21.9389 16 21.9389C15.2882 21.9389 14.5923 21.7282 14 21.3333C13.4077 20.9385 12.7118 20.7277 12 20.7277C11.2882 20.7277 10.5923 20.9385 10 21.3333C9.40774 21.7282 8.71183 21.9389 8 21.9389C7.28817 21.9389 6.59226 21.7282 6 21.3333C5.40781 20.9383 4.71184 20.7277 4 20.728M12 8V10.6667M16 8V10.6667M20 8V10.6667M12 4H12.0133M16 4H16.0133M20 4H20.0133M28 28V18.6667C28 17.9594 27.719 17.2811 27.219 16.781C26.7189 16.281 26.0406 16 25.3333 16H6.66667C5.95942 16 5.28115 16.281 4.78105 16.781C4.28095 17.2811 4 17.9594 4 18.6667V28H28ZM24 16V13.3333C24 12.6261 23.719 11.9478 23.219 11.4477C22.7189 10.9476 22.0406 10.6667 21.3333 10.6667H10.6667C9.95942 10.6667 9.28115 10.9476 8.78105 11.4477C8.28095 11.9478 8 12.6261 8 13.3333V16H24Z" stroke="#EBEBF0" stroke-width="2" stroke-linecap="round" stroke-linejoin="round"/>
</svg>
