<svg width="19" height="19" viewBox="0 0 19 19" fill="none" xmlns="http://www.w3.org/2000/svg">
<path d="M6.33333 5.54167V2.375M12.6667 5.54167V2.375M5.54167 8.70833H13.4583M3.95833 16.625H15.0417C15.4616 16.625 15.8643 16.4582 16.1613 16.1613C16.4582 15.8643 16.625 15.4616 16.625 15.0417V5.54167C16.625 5.12174 16.4582 4.71901 16.1613 4.42208C15.8643 4.12515 15.4616 3.95833 15.0417 3.95833H3.95833C3.53841 3.95833 3.13568 4.12515 2.83875 4.42208C2.54181 4.71901 2.375 5.12174 2.375 5.54167V15.0417C2.375 15.4616 2.54181 15.8643 2.83875 16.1613C3.13568 16.4582 3.53841 16.625 3.95833 16.625Z" stroke="#EBEBF0" stroke-opacity="0.66" stroke-width="1.5" stroke-linecap="round" stroke-linejoin="round"/>
</svg>
