<svg width="20" height="20" viewBox="0 0 20 20" fill="none" xmlns="http://www.w3.org/2000/svg">
<g id="chart-square-bar">
<path id="Vector" d="M13.3334 6.66634V13.333M10 9.16634V13.333M6.66671 11.6663V13.333M5.00004 16.6663H15C15.4421 16.6663 15.866 16.4907 16.1786 16.1782C16.4911 15.8656 16.6667 15.4417 16.6667 14.9997V4.99967C16.6667 4.55765 16.4911 4.13372 16.1786 3.82116C15.866 3.5086 15.4421 3.33301 15 3.33301H5.00004C4.55801 3.33301 4.13409 3.5086 3.82153 3.82116C3.50897 4.13372 3.33337 4.55765 3.33337 4.99967V14.9997C3.33337 15.4417 3.50897 15.8656 3.82153 16.1782C4.13409 16.4907 4.55801 16.6663 5.00004 16.6663Z" stroke="#EBEBF0" stroke-opacity="0.66" stroke-width="2" stroke-linecap="round" stroke-linejoin="round"/>
</g>
</svg>
