<svg width="30" height="30" viewBox="0 0 30 30" fill="none" xmlns="http://www.w3.org/2000/svg">
<path fill-rule="evenodd" clip-rule="evenodd" d="M24.8787 29.1213C26.0503 30.2929 27.9497 30.2929 29.1213 29.1213C30.2929 27.9497 30.2929 26.0503 29.1213 24.8787L19.2426 15L29.1213 5.12132C30.2929 3.94975 30.2929 2.05025 29.1213 0.878681C27.9497 -0.292892 26.0503 -0.292892 24.8787 0.878681L15 10.7574L5.12132 0.87868C3.94975 -0.292893 2.05025 -0.292893 0.878679 0.87868C-0.292893 2.05025 -0.292893 3.94975 0.878679 5.12132L10.7574 15L0.878681 24.8787C-0.292892 26.0503 -0.292892 27.9497 0.878681 29.1213C2.05025 30.2929 3.94975 30.2929 5.12132 29.1213L15 19.2426L24.8787 29.1213Z" fill="#333338"/>
</svg>
