<svg width="20" height="21" viewBox="0 0 20 21" fill="none" xmlns="http://www.w3.org/2000/svg">
<path d="M10 4.66634V4.67467M10 10.4997V10.508M10 16.333V16.3413M10 5.49967C9.77901 5.49967 9.56705 5.41188 9.41076 5.2556C9.25448 5.09932 9.16669 4.88735 9.16669 4.66634C9.16669 4.44533 9.25448 4.23337 9.41076 4.07709C9.56705 3.92081 9.77901 3.83301 10 3.83301C10.221 3.83301 10.433 3.92081 10.5893 4.07709C10.7456 4.23337 10.8334 4.44533 10.8334 4.66634C10.8334 4.88735 10.7456 5.09932 10.5893 5.2556C10.433 5.41188 10.221 5.49967 10 5.49967ZM10 11.333C9.77901 11.333 9.56705 11.2452 9.41076 11.0889C9.25448 10.9326 9.16669 10.7207 9.16669 10.4997C9.16669 10.2787 9.25448 10.0667 9.41076 9.91042C9.56705 9.75414 9.77901 9.66634 10 9.66634C10.221 9.66634 10.433 9.75414 10.5893 9.91042C10.7456 10.0667 10.8334 10.2787 10.8334 10.4997C10.8334 10.7207 10.7456 10.9326 10.5893 11.0889C10.433 11.2452 10.221 11.333 10 11.333ZM10 17.1663C9.77901 17.1663 9.56705 17.0785 9.41076 16.9223C9.25448 16.766 9.16669 16.554 9.16669 16.333C9.16669 16.112 9.25448 15.9 9.41076 15.7438C9.56705 15.5875 9.77901 15.4997 10 15.4997C10.221 15.4997 10.433 15.5875 10.5893 15.7438C10.7456 15.9 10.8334 16.112 10.8334 16.333C10.8334 16.554 10.7456 16.766 10.5893 16.9223C10.433 17.0785 10.221 17.1663 10 17.1663Z" stroke="#EBEBF0" stroke-linecap="round" stroke-linejoin="round"/>
</svg>
