<svg width="32" height="32" viewBox="0 0 32 32" fill="none" xmlns="http://www.w3.org/2000/svg">
<g id="dots-horizontal">
<path id="Vector" d="M6.66665 16.0003H6.67998M16 16.0003H16.0133M25.3333 16.0003H25.3466M7.99998 16.0003C7.99998 16.3539 7.8595 16.6931 7.60945 16.9431C7.35941 17.1932 7.02027 17.3337 6.66665 17.3337C6.31302 17.3337 5.97389 17.1932 5.72384 16.9431C5.47379 16.6931 5.33331 16.3539 5.33331 16.0003C5.33331 15.6467 5.47379 15.3076 5.72384 15.0575C5.97389 14.8075 6.31302 14.667 6.66665 14.667C7.02027 14.667 7.35941 14.8075 7.60945 15.0575C7.8595 15.3076 7.99998 15.6467 7.99998 16.0003ZM17.3333 16.0003C17.3333 16.3539 17.1928 16.6931 16.9428 16.9431C16.6927 17.1932 16.3536 17.3337 16 17.3337C15.6464 17.3337 15.3072 17.1932 15.0572 16.9431C14.8071 16.6931 14.6666 16.3539 14.6666 16.0003C14.6666 15.6467 14.8071 15.3076 15.0572 15.0575C15.3072 14.8075 15.6464 14.667 16 14.667C16.3536 14.667 16.6927 14.8075 16.9428 15.0575C17.1928 15.3076 17.3333 15.6467 17.3333 16.0003ZM26.6666 16.0003C26.6666 16.3539 26.5262 16.6931 26.2761 16.9431C26.0261 17.1932 25.6869 17.3337 25.3333 17.3337C24.9797 17.3337 24.6406 17.1932 24.3905 16.9431C24.1405 16.6931 24 16.3539 24 16.0003C24 15.6467 24.1405 15.3076 24.3905 15.0575C24.6406 14.8075 24.9797 14.667 25.3333 14.667C25.6869 14.667 26.0261 14.8075 26.2761 15.0575C26.5262 15.3076 26.6666 15.6467 26.6666 16.0003Z" stroke="#EBEBF0" stroke-width="2" stroke-linecap="round" stroke-linejoin="round"/>
</g>
</svg>
