<svg width="32" height="32" viewBox="0 0 32 32" fill="none" xmlns="http://www.w3.org/2000/svg">
<path d="M12.0003 16H20.0003M12.0003 21.3333H20.0003M22.667 28H9.33366C8.62641 28 7.94814 27.719 7.44804 27.219C6.94794 26.7189 6.66699 26.0406 6.66699 25.3333V6.66667C6.66699 5.95942 6.94794 5.28115 7.44804 4.78105C7.94814 4.28095 8.62641 4 9.33366 4H16.7817C17.1353 4.00008 17.4743 4.1406 17.7243 4.39067L24.943 11.6093C25.1931 11.8593 25.3336 12.1984 25.3337 12.552V25.3333C25.3337 26.0406 25.0527 26.7189 24.5526 27.219C24.0525 27.719 23.3742 28 22.667 28Z" stroke="#EBEBF0" stroke-width="2" stroke-linecap="round" stroke-linejoin="round"/>
</svg>
