<svg width="24" height="25" viewBox="0 0 24 25" fill="none" xmlns="http://www.w3.org/2000/svg">
<path d="M12 6.5V4.5M12 6.5C11.4696 6.5 10.9609 6.71071 10.5858 7.08579C10.2107 7.46086 10 7.96957 10 8.5C10 9.03043 10.2107 9.53914 10.5858 9.91421C10.9609 10.2893 11.4696 10.5 12 10.5M12 6.5C12.5304 6.5 13.0391 6.71071 13.4142 7.08579C13.7893 7.46086 14 7.96957 14 8.5C14 9.03043 13.7893 9.53914 13.4142 9.91421C13.0391 10.2893 12.5304 10.5 12 10.5M12 10.5V20.5M6 18.5C6.53043 18.5 7.03914 18.2893 7.41421 17.9142C7.78929 17.5391 8 17.0304 8 16.5C8 15.9696 7.78929 15.4609 7.41421 15.0858C7.03914 14.7107 6.53043 14.5 6 14.5M6 18.5C5.46957 18.5 4.96086 18.2893 4.58579 17.9142C4.21071 17.5391 4 17.0304 4 16.5C4 15.9696 4.21071 15.4609 4.58579 15.0858C4.96086 14.7107 5.46957 14.5 6 14.5M6 18.5V20.5M6 14.5V4.5M18 18.5C18.5304 18.5 19.0391 18.2893 19.4142 17.9142C19.7893 17.5391 20 17.0304 20 16.5C20 15.9696 19.7893 15.4609 19.4142 15.0858C19.0391 14.7107 18.5304 14.5 18 14.5M18 18.5C17.4696 18.5 16.9609 18.2893 16.5858 17.9142C16.2107 17.5391 16 17.0304 16 16.5C16 15.9696 16.2107 15.4609 16.5858 15.0858C16.9609 14.7107 17.4696 14.5 18 14.5M18 18.5V20.5M18 14.5V4.5" stroke="white" stroke-width="2" stroke-linecap="round" stroke-linejoin="round"/>
</svg>
