<svg width="32" height="32" viewBox="0 0 32 32" fill="none" xmlns="http://www.w3.org/2000/svg">
<path d="M9.33398 15.3333V18.6667M9.33398 15.3333V7.33333C9.33398 6.8029 9.5447 6.29419 9.91977 5.91912C10.2948 5.54405 10.8036 5.33333 11.334 5.33333C11.8644 5.33333 12.3731 5.54405 12.7482 5.91912C13.1233 6.29419 13.334 6.8029 13.334 7.33333M9.33398 15.3333C9.33398 14.8029 9.12327 14.2942 8.7482 13.9191C8.37313 13.544 7.86442 13.3333 7.33398 13.3333C6.80355 13.3333 6.29484 13.544 5.91977 13.9191C5.5447 14.2942 5.33398 14.8029 5.33398 15.3333V18C5.33398 20.6522 6.38755 23.1957 8.26292 25.0711C10.1383 26.9464 12.6818 28 15.334 28C17.9861 28 20.5297 26.9464 22.4051 25.0711C24.2804 23.1957 25.334 20.6522 25.334 18V11.3333C25.334 10.8029 25.1233 10.2942 24.7482 9.91912C24.3731 9.54405 23.8644 9.33333 23.334 9.33333C22.8036 9.33333 22.2948 9.54405 21.9198 9.91912C21.5447 10.2942 21.334 10.8029 21.334 11.3333M13.334 7.33333V14.6667M13.334 7.33333V6C13.334 5.46957 13.5447 4.96086 13.9198 4.58579C14.2948 4.21071 14.8036 4 15.334 4C15.8644 4 16.3731 4.21071 16.7482 4.58579C17.1233 4.96086 17.334 5.46957 17.334 6V7.33333M21.334 11.3333V7.33333C21.334 6.8029 21.1233 6.29419 20.7482 5.91912C20.3731 5.54405 19.8644 5.33333 19.334 5.33333C18.8036 5.33333 18.2948 5.54405 17.9198 5.91912C17.5447 6.29419 17.334 6.8029 17.334 7.33333M21.334 11.3333V14.6667M17.334 7.33333V14.6667" stroke="#EBEBF0" stroke-width="2" stroke-linecap="round" stroke-linejoin="round"/>
</svg>
