<svg width="40" height="40" viewBox="0 0 40 40" fill="none" xmlns="http://www.w3.org/2000/svg">
<path d="M5.57091 12.9619C5.94783 12.052 6.50028 11.2252 7.19673 10.5288C7.89317 9.83231 8.71997 9.27986 9.62992 8.90294C10.5399 8.52603 11.5151 8.33203 12.5001 8.33203C13.485 8.33203 14.4603 8.52603 15.3702 8.90294C16.2802 9.27986 17.107 9.83231 17.8034 10.5288L20.0001 12.7254L22.1967 10.5288C23.6033 9.12223 25.5109 8.33205 27.5001 8.33205C29.4892 8.33205 31.3969 9.12223 32.8034 10.5288C34.2099 11.9353 35.0001 13.843 35.0001 15.8321C35.0001 17.8212 34.2099 19.7289 32.8034 21.1354L20.0001 33.9388L7.19673 21.1354C6.50028 20.439 5.94783 19.6122 5.57091 18.7022C5.194 17.7923 5 16.817 5 15.8321C5 14.8472 5.194 13.8719 5.57091 12.9619Z" stroke="white" stroke-width="2.5" stroke-linecap="round" stroke-linejoin="round"/>
</svg>
