<svg width="32" height="32" viewBox="0 0 32 32" fill="none" xmlns="http://www.w3.org/2000/svg">
<path d="M13.3333 8H6.66667C5.95942 8 5.28115 8.28095 4.78105 8.78105C4.28095 9.28115 4 9.95942 4 10.6667V22.6667C4 23.3739 4.28095 24.0522 4.78105 24.5523C5.28115 25.0524 5.95942 25.3333 6.66667 25.3333H25.3333C26.0406 25.3333 26.7189 25.0524 27.219 24.5523C27.719 24.0522 28 23.3739 28 22.6667V10.6667C28 9.95942 27.719 9.28115 27.219 8.78105C26.7189 8.28095 26.0406 8 25.3333 8H18.6667M13.3333 8V6.66667C13.3333 5.95942 13.6143 5.28115 14.1144 4.78105C14.6145 4.28095 15.2928 4 16 4C16.7072 4 17.3855 4.28095 17.8856 4.78105C18.3857 5.28115 18.6667 5.95942 18.6667 6.66667V8M13.3333 8C13.3333 8.70724 13.6143 9.38552 14.1144 9.88562C14.6145 10.3857 15.2928 10.6667 16 10.6667C16.7072 10.6667 17.3855 10.3857 17.8856 9.88562C18.3857 9.38552 18.6667 8.70724 18.6667 8M12 18.6667C12.7072 18.6667 13.3855 18.3857 13.8856 17.8856C14.3857 17.3855 14.6667 16.7072 14.6667 16C14.6667 15.2928 14.3857 14.6145 13.8856 14.1144C13.3855 13.6143 12.7072 13.3333 12 13.3333C11.2928 13.3333 10.6145 13.6143 10.1144 14.1144C9.61428 14.6145 9.33333 15.2928 9.33333 16C9.33333 16.7072 9.61428 17.3855 10.1144 17.8856C10.6145 18.3857 11.2928 18.6667 12 18.6667ZM12 18.6667C13.7413 18.6667 15.2227 19.78 15.7733 21.3333M12 18.6667C11.1725 18.6664 10.3653 18.9227 9.68953 19.4003C9.01376 19.8779 8.50268 20.5532 8.22667 21.3333M20 14.6667H24M20 20H22.6667" stroke="#EBEBF0" stroke-width="2" stroke-linecap="round" stroke-linejoin="round"/>
</svg>
