<svg width="32" height="32" viewBox="0 0 32 32" fill="none" xmlns="http://www.w3.org/2000/svg">
<path d="M23.5423 22.2089L17.885 27.8663C17.6376 28.1139 17.3438 28.3104 17.0204 28.4444C16.697 28.5785 16.3504 28.6475 16.0003 28.6475C15.6503 28.6475 15.3037 28.5785 14.9803 28.4444C14.6569 28.3104 14.3631 28.1139 14.1157 27.8663L8.45701 22.2089C6.96531 20.7172 5.94946 18.8165 5.53793 16.7474C5.1264 14.6783 5.33767 12.5336 6.14502 10.5846C6.95237 8.63554 8.31954 6.96966 10.0737 5.79762C11.8278 4.62558 13.89 4 15.9997 4C18.1093 4 20.1716 4.62558 21.9257 5.79762C23.6798 6.96966 25.047 8.63554 25.8543 10.5846C26.6617 12.5336 26.873 14.6783 26.4614 16.7474C26.0499 18.8165 25.0341 20.7172 23.5423 22.2089V22.2089Z" stroke="#EBEBF0" stroke-width="2" stroke-linecap="round" stroke-linejoin="round"/>
<path d="M18.8284 17.4944C19.5786 16.7443 20 15.7269 20 14.666C20 13.6051 19.5786 12.5877 18.8284 11.8376C18.0783 11.0874 17.0609 10.666 16 10.666C14.9391 10.666 13.9217 11.0874 13.1716 11.8376C12.4214 12.5877 12 13.6051 12 14.666C12 15.7269 12.4214 16.7443 13.1716 17.4944C13.9217 18.2446 14.9391 18.666 16 18.666C17.0609 18.666 18.0783 18.2446 18.8284 17.4944Z" stroke="#EBEBF0" stroke-width="2" stroke-linecap="round" stroke-linejoin="round"/>
</svg>
