<svg width="32" height="32" viewBox="0 0 32 32" fill="none" xmlns="http://www.w3.org/2000/svg">
<path d="M25.3333 28V6.66667C25.3333 5.95942 25.0524 5.28115 24.5523 4.78105C24.0522 4.28095 23.3739 4 22.6667 4H9.33333C8.62609 4 7.94781 4.28095 7.44772 4.78105C6.94762 5.28115 6.66667 5.95942 6.66667 6.66667V28M25.3333 28H6.66667M25.3333 28H28M25.3333 28H18.6667M6.66667 28H4M6.66667 28H13.3333M18.6667 28V21.3333C18.6667 20.9797 18.5262 20.6406 18.2761 20.3905C18.0261 20.1405 17.687 20 17.3333 20H14.6667C14.313 20 13.9739 20.1405 13.7239 20.3905C13.4738 20.6406 13.3333 20.9797 13.3333 21.3333V28M18.6667 28H13.3333M12 9.33333H13.3333M12 14.6667H13.3333M18.6667 9.33333H20M18.6667 14.6667H20" stroke="#EBEBF0" stroke-width="2" stroke-linecap="round" stroke-linejoin="round"/>
</svg>
