<svg width="25" height="24" viewBox="0 0 25 24" fill="none" xmlns="http://www.w3.org/2000/svg">
<path d="M12.2218 9.03632L15.4188 11.1683C15.5557 11.2596 15.668 11.3844 15.7457 11.5295C15.8233 11.6746 15.864 11.8367 15.864 12.0013C15.864 12.1659 15.8233 12.328 15.7457 12.4731C15.668 12.6183 15.5557 12.742 15.4188 12.8333L12.2218 14.9653C12.0712 15.0658 11.8961 15.1235 11.7153 15.1323C11.5344 15.1411 11.3546 15.1006 11.195 15.0152C11.0354 14.9298 10.9019 14.8026 10.8089 14.6473C10.7158 14.492 10.6667 14.3144 10.6668 14.1333V9.87032C10.6664 9.6891 10.7152 9.51119 10.8081 9.35559C10.901 9.2 11.0344 9.07256 11.1941 8.98691C11.3538 8.90126 11.5338 8.86062 11.7148 8.86932C11.8958 8.87802 12.071 8.93574 12.2218 9.03632Z" stroke="#EBEBF0" stroke-width="2" stroke-linecap="round" stroke-linejoin="round"/>
<path d="M20.9817 15.4442C21.434 14.3522 21.6667 13.1819 21.6667 12C21.6667 9.61305 20.7185 7.32387 19.0307 5.63604C17.3429 3.94821 15.0537 3 12.6667 3C10.2798 3 7.99061 3.94821 6.30279 5.63604C4.61496 7.32387 3.66675 9.61305 3.66675 12C3.66675 13.1819 3.89954 14.3522 4.35183 15.4442C4.80412 16.5361 5.46706 17.5282 6.30279 18.364C7.13851 19.1997 8.13067 19.8626 9.2226 20.3149C10.3145 20.7672 11.4849 21 12.6667 21C13.8486 21 15.019 20.7672 16.1109 20.3149C17.2028 19.8626 18.195 19.1997 19.0307 18.364C19.8664 17.5282 20.5294 16.5361 20.9817 15.4442Z" stroke="#EBEBF0" stroke-width="2" stroke-linecap="round" stroke-linejoin="round"/>
</svg>
