<svg width="25" height="25" viewBox="0 0 25 25" fill="none" xmlns="http://www.w3.org/2000/svg">
<g filter="url(#filter0_b_584_35047)">
<path d="M20.9814 15.9442C21.4337 14.8522 21.6665 13.6819 21.6665 12.5C21.6665 10.1131 20.7183 7.82387 19.0305 6.13604C17.3426 4.44821 15.0535 3.5 12.6665 3.5C10.2796 3.5 7.99037 4.44821 6.30254 6.13604C4.61472 7.82387 3.6665 10.1131 3.6665 12.5C3.6665 13.6819 3.8993 14.8522 4.35159 15.9442C4.80388 17.0361 5.46682 18.0282 6.30254 18.864C7.13827 19.6997 8.13042 20.3626 9.22235 20.8149C10.3143 21.2672 11.4846 21.5 12.6665 21.5C13.8484 21.5 15.0187 21.2672 16.1107 20.8149C17.2026 20.3626 18.1947 19.6997 19.0305 18.864C19.8662 18.0282 20.5291 17.0361 20.9814 15.9442Z" fill="#FF4D4F" fill-opacity="0.2"/>
<path d="M15.6665 12.5H9.6665M21.6665 12.5C21.6665 13.6819 21.4337 14.8522 20.9814 15.9442C20.5291 17.0361 19.8662 18.0282 19.0305 18.864C18.1947 19.6997 17.2026 20.3626 16.1107 20.8149C15.0187 21.2672 13.8484 21.5 12.6665 21.5C11.4846 21.5 10.3143 21.2672 9.22235 20.8149C8.13042 20.3626 7.13827 19.6997 6.30254 18.864C5.46682 18.0282 4.80388 17.0361 4.35159 15.9442C3.8993 14.8522 3.6665 13.6819 3.6665 12.5C3.6665 10.1131 4.61472 7.82387 6.30254 6.13604C7.99037 4.44821 10.2796 3.5 12.6665 3.5C15.0535 3.5 17.3426 4.44821 19.0305 6.13604C20.7183 7.82387 21.6665 10.1131 21.6665 12.5Z" stroke="#FF4D4F" stroke-width="2" stroke-linecap="round" stroke-linejoin="round"/>
</g>
<defs>
<filter id="filter0_b_584_35047" x="-3.3335" y="-3.5" width="32" height="32" filterUnits="userSpaceOnUse" color-interpolation-filters="sRGB">
<feFlood flood-opacity="0" result="BackgroundImageFix"/>
<feGaussianBlur in="BackgroundImageFix" stdDeviation="3"/>
<feComposite in2="SourceAlpha" operator="in" result="effect1_backgroundBlur_584_35047"/>
<feBlend mode="normal" in="SourceGraphic" in2="effect1_backgroundBlur_584_35047" result="shape"/>
</filter>
</defs>
</svg>
