<svg width="22" height="23" viewBox="0 0 22 23" fill="none" xmlns="http://www.w3.org/2000/svg">
<path d="M7.66667 11.5L9.88889 13.7222L14.3333 9.27778M21 11.5C21 12.8132 20.7413 14.1136 20.2388 15.3268C19.7363 16.5401 18.9997 17.6425 18.0711 18.5711C17.1425 19.4997 16.0401 20.2363 14.8268 20.7388C13.6136 21.2413 12.3132 21.5 11 21.5C9.68678 21.5 8.38642 21.2413 7.17317 20.7388C5.95991 20.2363 4.85752 19.4997 3.92893 18.5711C3.00035 17.6425 2.26375 16.5401 1.7612 15.3268C1.25866 14.1136 1 12.8132 1 11.5C1 8.84784 2.05357 6.3043 3.92893 4.42893C5.8043 2.55357 8.34784 1.5 11 1.5C13.6522 1.5 16.1957 2.55357 18.0711 4.42893C19.9464 6.3043 21 8.84784 21 11.5Z" stroke="#3BE7DC" stroke-width="2" stroke-linecap="round" stroke-linejoin="round"/>
</svg>
