<svg width="32" height="32" viewBox="0 0 32 32" fill="none" xmlns="http://www.w3.org/2000/svg">
<path d="M17.2681 3.90342C16.8695 2.67542 15.1321 2.67542 14.7321 3.90342L12.7068 10.1354C12.6196 10.403 12.4499 10.636 12.2222 10.8013C11.9944 10.9665 11.7202 11.0555 11.4388 11.0554H4.88679C3.59613 11.0554 3.05746 12.7088 4.10279 13.4688L9.40413 17.3194C9.63185 17.485 9.80133 17.7184 9.88827 17.9861C9.97522 18.2539 9.97516 18.5423 9.88813 18.8101L7.86413 25.0421C7.46413 26.2701 8.87079 27.2928 9.91479 26.5328L15.2161 22.6821C15.444 22.5165 15.7184 22.4272 16.0001 22.4272C16.2818 22.4272 16.5563 22.5165 16.7841 22.6821L22.0855 26.5328C23.1295 27.2928 24.5361 26.2714 24.1361 25.0421L22.1121 18.8101C22.0251 18.5423 22.025 18.2539 22.112 17.9861C22.1989 17.7184 22.3684 17.485 22.5961 17.3194L27.8975 13.4688C28.9415 12.7088 28.4055 11.0554 27.1135 11.0554H20.5601C20.279 11.0552 20.0051 10.9661 19.7776 10.8009C19.5501 10.6357 19.3806 10.4027 19.2935 10.1354L17.2681 3.90342Z" stroke="#EBEBF0" stroke-width="2" stroke-linecap="round" stroke-linejoin="round"/>
</svg>
