<svg width="19" height="19" viewBox="0 0 19 19" fill="none" xmlns="http://www.w3.org/2000/svg">
<path d="M10.2529 2.31638C10.0162 1.58725 8.98464 1.58725 8.74714 2.31638L7.5446 6.01662C7.4928 6.17547 7.39208 6.31386 7.25685 6.41198C7.12161 6.5101 6.9588 6.56292 6.79172 6.56288H2.90147C2.13514 6.56288 1.81531 7.54454 2.43597 7.99579L5.58364 10.2821C5.71885 10.3804 5.81948 10.519 5.8711 10.678C5.92272 10.837 5.92269 11.0082 5.87101 11.1672L4.66926 14.8675C4.43176 15.5966 5.26697 16.2038 5.88685 15.7525L9.03451 13.4662C9.1698 13.3679 9.33276 13.3149 9.50001 13.3149C9.66727 13.3149 9.83023 13.3679 9.96551 13.4662L13.1132 15.7525C13.7331 16.2038 14.5683 15.5974 14.3308 14.8675L13.129 11.1672C13.0773 11.0082 13.0773 10.837 13.1289 10.678C13.1806 10.519 13.2812 10.3804 13.4164 10.2821L16.5641 7.99579C17.1839 7.54454 16.8657 6.56288 16.0986 6.56288H12.2075C12.0406 6.56275 11.8779 6.50986 11.7429 6.41175C11.6078 6.31364 11.5072 6.17534 11.4554 6.01662L10.2529 2.31638Z" fill="#0F7A73" stroke="#3BE7DC" stroke-linecap="round" stroke-linejoin="round"/>
</svg>
