<svg width="23" height="23" viewBox="0 0 23 23" fill="none" xmlns="http://www.w3.org/2000/svg">
<g id="Group">
<path id="Vector" d="M11.2579 22.7092L14.4074 4.99572C17.4096 4.99572 18.3565 5.32492 18.4932 6.66862C18.4932 6.66862 20.5071 5.91771 21.5229 4.39263C17.5592 2.55593 13.5765 2.4731 13.5765 2.4731L11.2526 5.30361L11.2579 5.30326L8.93393 2.47266C8.93393 2.47266 4.95122 2.55558 0.988037 4.39228C2.00289 5.91735 4.0176 6.66826 4.0176 6.66826C4.15512 5.32448 5.1009 4.99528 8.08287 4.99315L11.2579 22.7092Z" fill="#E82127"/>
<path id="Vector_2" d="M11.2567 1.65469C14.4608 1.63019 18.1283 2.15035 21.8826 3.78667C22.3844 2.88351 22.5134 2.48435 22.5134 2.48435C18.4093 0.860634 14.5659 0.304954 11.2563 0.291016C7.94678 0.304954 4.10354 0.860723 0 2.48435C0 2.48435 0.183066 2.97602 0.630344 3.78667C4.384 2.15035 8.05207 1.63019 11.2563 1.65469H11.2567Z" fill="#E82127"/>
</g>
</svg>
