<svg width="20" height="20" viewBox="0 0 20 20" fill="none" xmlns="http://www.w3.org/2000/svg">
<path d="M8.34116 9.16667V14.1667M11.6745 9.16667V14.1667M3.34116 5.83333H16.6745M15.8412 5.83333L15.1187 15.9517C15.0887 16.3722 14.9006 16.7657 14.5921 17.053C14.2836 17.3403 13.8777 17.5 13.4562 17.5H6.55949C6.13794 17.5 5.73204 17.3403 5.42356 17.053C5.11508 16.7657 4.92692 16.3722 4.89699 15.9517L4.17449 5.83333H15.8412ZM12.5078 5.83333V3.33333C12.5078 3.11232 12.42 2.90036 12.2637 2.74408C12.1075 2.5878 11.8955 2.5 11.6745 2.5H8.34116C8.12014 2.5 7.90818 2.5878 7.7519 2.74408C7.59562 2.90036 7.50782 3.11232 7.50782 3.33333V5.83333H12.5078Z" stroke="#FF4D4F" stroke-width="2" stroke-linecap="round" stroke-linejoin="round"/>
</svg>
