<svg width="32" height="32" viewBox="0 0 32 32" fill="none" xmlns="http://www.w3.org/2000/svg">
<path d="M16 5.80533C16.7166 4.99294 17.6636 4.41801 18.7149 4.15706C19.7663 3.89611 20.8722 3.9615 21.8855 4.34454C22.8988 4.72757 23.7715 5.41009 24.3873 6.30128C25.0032 7.19247 25.333 8.25006 25.333 9.33333C25.333 10.4166 25.0032 11.4742 24.3873 12.3654C23.7715 13.2566 22.8988 13.9391 21.8855 14.3221C20.8722 14.7052 19.7663 14.7706 18.7149 14.5096C17.6636 14.2487 16.7166 13.6737 16 12.8613M20 28H4V26.6667C4 24.5449 4.84286 22.5101 6.34315 21.0098C7.84344 19.5095 9.87827 18.6667 12 18.6667C14.1217 18.6667 16.1566 19.5095 17.6569 21.0098C19.1571 22.5101 20 24.5449 20 26.6667V28ZM20 28H28V26.6667C28.0002 25.2623 27.6307 23.8826 26.9286 22.6663C26.2266 21.45 25.2167 20.4399 24.0005 19.7376C22.7843 19.0353 21.4047 18.6656 20.0003 18.6655C18.5959 18.6655 17.2162 19.0351 16 19.7373M17.3333 9.33333C17.3333 10.7478 16.7714 12.1044 15.7712 13.1046C14.771 14.1048 13.4145 14.6667 12 14.6667C10.5855 14.6667 9.22896 14.1048 8.22876 13.1046C7.22857 12.1044 6.66667 10.7478 6.66667 9.33333C6.66667 7.91885 7.22857 6.56229 8.22876 5.5621C9.22896 4.5619 10.5855 4 12 4C13.4145 4 14.771 4.5619 15.7712 5.5621C16.7714 6.56229 17.3333 7.91885 17.3333 9.33333Z" stroke="#EBEBF0" stroke-width="2" stroke-linecap="round" stroke-linejoin="round"/>
</svg>
