<svg width="19" height="19" viewBox="0 0 19 19" fill="none" xmlns="http://www.w3.org/2000/svg">
<path d="M11.7392 7.78084C12.3331 7.18697 12.6667 6.38152 12.6667 5.54167C12.6667 4.70181 12.3331 3.89636 11.7392 3.3025C11.1453 2.70863 10.3399 2.375 9.50004 2.375C8.66019 2.375 7.85473 2.70863 7.26087 3.3025C6.667 3.89636 6.33337 4.70181 6.33337 5.54167C6.33337 6.38152 6.667 7.18697 7.26087 7.78084C7.85473 8.3747 8.66019 8.70833 9.50004 8.70833C10.3399 8.70833 11.1453 8.3747 11.7392 7.78084Z" stroke="#EBEBF0" stroke-opacity="0.66" stroke-width="1.5" stroke-linecap="round" stroke-linejoin="round"/>
<path d="M5.58149 12.7065C6.62075 11.6672 8.0303 11.0833 9.50004 11.0833C10.9698 11.0833 12.3793 11.6672 13.4186 12.7065C14.4579 13.7457 15.0417 15.1553 15.0417 16.625H3.95837C3.95837 15.1553 4.54223 13.7457 5.58149 12.7065Z" stroke="#EBEBF0" stroke-opacity="0.66" stroke-width="1.5" stroke-linecap="round" stroke-linejoin="round"/>
</svg>
