<svg width="20" height="20" viewBox="0 0 20 20" fill="none" xmlns="http://www.w3.org/2000/svg">
<path d="M7.00391 10L9.00391 12L13.0039 8M19.0039 10C19.0039 11.1819 18.7711 12.3522 18.3188 13.4442C17.8665 14.5361 17.2036 15.5282 16.3679 16.364C15.5321 17.1997 14.54 17.8626 13.4481 18.3149C12.3561 18.7672 11.1858 19 10.0039 19C8.82201 19 7.65169 18.7672 6.55976 18.3149C5.46783 17.8626 4.47567 17.1997 3.63995 16.364C2.80422 15.5282 2.14128 14.5361 1.68899 13.4442C1.2367 12.3522 1.00391 11.1819 1.00391 10C1.00391 7.61305 1.95212 5.32387 3.63995 3.63604C5.32777 1.94821 7.61696 1 10.0039 1C12.3909 1 14.68 1.94821 16.3679 3.63604C18.0557 5.32387 19.0039 7.61305 19.0039 10Z" stroke="#3BE7DC" stroke-width="2" stroke-linecap="round" stroke-linejoin="round"/>
</svg>
