<svg width="20" height="20" viewBox="0 0 20 20" fill="none" xmlns="http://www.w3.org/2000/svg">
<path d="M14.1658 3.33333L11.0325 2.55C10.9003 2.51687 10.7646 2.50008 10.6283 2.5H7.27999C6.97042 2.50001 6.66696 2.58624 6.40364 2.74903C6.14032 2.91183 5.92754 3.14474 5.78916 3.42167L2.87249 9.255C2.74552 9.5091 2.6856 9.79143 2.69841 10.0752C2.71123 10.359 2.79636 10.6347 2.94572 10.8764C3.09508 11.118 3.30372 11.3174 3.55183 11.4557C3.79993 11.594 4.07927 11.6667 4.36333 11.6667H8.33333H9.99999M14.1658 3.33333L14.1667 10.8333L11.34 15.0733C11.0092 15.5692 10.8333 16.1508 10.8333 16.7467C10.8333 17.1625 10.4958 17.5 10.0792 17.5H9.99916C9.55713 17.5 9.13321 17.3244 8.82065 17.0118C8.50809 16.6993 8.33249 16.2754 8.33249 15.8333V11.6667M14.1658 3.33333H15.8333C16.2754 3.33333 16.6993 3.50893 17.0118 3.82149C17.3244 4.13405 17.5 4.55797 17.5 5V10C17.5 10.442 17.3244 10.866 17.0118 11.1785C16.6993 11.4911 16.2754 11.6667 15.8333 11.6667H13.75" stroke="#EBEBF0" stroke-width="2.5" stroke-linecap="round" stroke-linejoin="round"/>
</svg>
