<svg width="32" height="32" viewBox="0 0 32 32" fill="none" xmlns="http://www.w3.org/2000/svg">
<path d="M22.667 26.6673H29.3337V24.0007C29.3336 23.1694 29.0745 22.3587 28.5925 21.6815C28.1105 21.0042 27.4294 20.494 26.644 20.2217C25.8586 19.9493 25.0078 19.9285 24.21 20.162C23.4122 20.3955 22.707 20.8718 22.1923 21.5247M22.667 26.6673H9.33366M22.667 26.6673V24.0007C22.667 23.126 22.499 22.29 22.1923 21.5247M22.1923 21.5247C21.6972 20.2873 20.8427 19.2266 19.739 18.4795C18.6353 17.7324 17.3331 17.333 16.0003 17.333C14.6675 17.333 13.3653 17.7324 12.2617 18.4795C11.158 19.2266 10.3035 20.2873 9.80833 21.5247M9.33366 26.6673H2.66699V24.0007C2.66705 23.1694 2.92611 22.3587 3.40814 21.6815C3.89018 21.0042 4.57124 20.494 5.35666 20.2217C6.14208 19.9493 6.99283 19.9285 7.79064 20.162C8.58846 20.3955 9.2937 20.8718 9.80833 21.5247M9.33366 26.6673V24.0007C9.33366 23.126 9.50166 22.29 9.80833 21.5247M20.0003 9.33398C20.0003 10.3949 19.5789 11.4123 18.8288 12.1624C18.0786 12.9126 17.0612 13.334 16.0003 13.334C14.9395 13.334 13.922 12.9126 13.1719 12.1624C12.4218 11.4123 12.0003 10.3949 12.0003 9.33398C12.0003 8.27312 12.4218 7.2557 13.1719 6.50556C13.922 5.75541 14.9395 5.33398 16.0003 5.33398C17.0612 5.33398 18.0786 5.75541 18.8288 6.50556C19.5789 7.2557 20.0003 8.27312 20.0003 9.33398ZM28.0003 13.334C28.0003 14.0412 27.7194 14.7195 27.2193 15.2196C26.7192 15.7197 26.0409 16.0007 25.3337 16.0007C24.6264 16.0007 23.9481 15.7197 23.448 15.2196C22.9479 14.7195 22.667 14.0412 22.667 13.334C22.667 12.6267 22.9479 11.9485 23.448 11.4484C23.9481 10.9483 24.6264 10.6673 25.3337 10.6673C26.0409 10.6673 26.7192 10.9483 27.2193 11.4484C27.7194 11.9485 28.0003 12.6267 28.0003 13.334ZM9.33366 13.334C9.33366 14.0412 9.05271 14.7195 8.55261 15.2196C8.05251 15.7197 7.37424 16.0007 6.66699 16.0007C5.95975 16.0007 5.28147 15.7197 4.78137 15.2196C4.28128 14.7195 4.00033 14.0412 4.00033 13.334C4.00033 12.6267 4.28128 11.9485 4.78137 11.4484C5.28147 10.9483 5.95975 10.6673 6.66699 10.6673C7.37424 10.6673 8.05251 10.9483 8.55261 11.4484C9.05271 11.9485 9.33366 12.6267 9.33366 13.334Z" stroke="#EBEBF0" stroke-width="2" stroke-linecap="round" stroke-linejoin="round"/>
</svg>
