<svg width="32" height="32" viewBox="0 0 32 32" fill="none" xmlns="http://www.w3.org/2000/svg">
<path d="M19.7725 13.1046C20.7727 12.1044 21.3346 10.7478 21.3346 9.33333C21.3346 7.91885 20.7727 6.56229 19.7725 5.5621C18.7723 4.5619 17.4158 4 16.0013 4C14.5868 4 13.2303 4.5619 12.2301 5.5621C11.2299 6.56229 10.668 7.91885 10.668 9.33333C10.668 10.7478 11.2299 12.1044 12.2301 13.1046C13.2303 14.1048 14.5868 14.6667 16.0013 14.6667C17.4158 14.6667 18.7723 14.1048 19.7725 13.1046Z" stroke="#EBEBF0" stroke-width="2" stroke-linecap="round" stroke-linejoin="round"/>
<path d="M9.40164 21.4003C11.152 19.65 13.5259 18.6667 16.0013 18.6667C18.4767 18.6667 20.8506 19.65 22.601 21.4003C24.3513 23.1507 25.3346 25.5246 25.3346 28H6.66797C6.66797 25.5246 7.6513 23.1507 9.40164 21.4003Z" stroke="#EBEBF0" stroke-width="2" stroke-linecap="round" stroke-linejoin="round"/>
</svg>
