<svg width="81" height="80" viewBox="0 0 81 80" fill="none" xmlns="http://www.w3.org/2000/svg">
<rect x="5.5" y="5" width="70" height="70" rx="35" fill="#1275B1"/>
<path d="M32.0464 24.2304C32.0464 26.5667 30.0213 28.4607 27.5232 28.4607C25.0251 28.4607 23 26.5667 23 24.2304C23 21.894 25.0251 20 27.5232 20C30.0213 20 32.0464 21.894 32.0464 24.2304Z" fill="white"/>
<path d="M23.6186 31.5702H31.3505V55H23.6186V31.5702Z" fill="white"/>
<path d="M43.799 31.5702H36.067V55H43.799C43.799 55 43.799 47.624 43.799 43.0121C43.799 40.244 44.7441 37.4638 48.5155 37.4638C52.7775 37.4638 52.7519 41.0863 52.732 43.8927C52.706 47.5611 52.768 51.3046 52.768 55H60.5V42.6343C60.4345 34.7384 58.3771 31.1002 51.6082 31.1002C47.5885 31.1002 45.0968 32.9251 43.799 34.5762V31.5702Z" fill="white"/>
</svg>
