<svg width="212" height="48" viewBox="0 0 212 48" fill="none" xmlns="http://www.w3.org/2000/svg">
<g clip-path="url(#clip0_579_22623)">
<path d="M49.5632 17.599H31.7636L31.1278 18.1076V33.9364H36.0227V27.9608L36.4676 27.5159H49.563C52.8685 27.5159 54.3943 26.626 54.3943 24.3376V20.714C54.3945 18.489 52.8687 17.599 49.5632 17.599ZM49.5632 23.4473C49.5632 24.5279 48.8638 24.7187 47.2746 24.7187H36.5313L36.0227 24.2738V20.9046L36.4676 20.4596H47.2744C48.8002 20.4596 49.5629 20.6503 49.5629 21.7309L49.5632 23.4473ZM63.4213 20.5867L67.6805 26.8165L67.4262 27.3887H58.0179L55.6022 30.3765H69.5875L70.6046 30.9485L72.766 33.9363H78.4237L66.0277 17.4083L63.4213 20.5867ZM119.553 30.7578V26.3081L120.062 25.863H129.534V23.0659H114.531V33.9363H136.654V31.1393H120.125L119.553 30.7578ZM114.531 17.599H136.844V20.6503H114.531V17.599ZM89.6756 20.5232H107.666C107.411 18.2347 105.949 17.599 102.389 17.599H89.4849C85.4165 17.599 84.1451 18.3619 84.1451 21.4767V30.1221C84.1451 33.1735 85.4165 34 89.4849 34H102.389C106.013 34 107.411 33.3006 107.539 30.9485H89.6756L89.167 30.4399V20.9046L89.6756 20.5232ZM19.0497 23.9559H6.01792L5.63648 23.5111V20.714L6.01792 20.3961H23.6267L23.8809 19.824C23.3088 18.2982 21.7196 17.5355 18.8589 17.5355H6.58999C2.52158 17.5355 1.25017 18.2983 1.25017 21.4131V23.2567C1.25017 26.3081 2.52158 27.1346 6.58999 27.1346H19.6218L20.0032 27.5158V30.44L19.6854 30.8851H0.868729C0.868729 30.8851 0.423828 31.1393 0.423828 31.2029C0.741638 33.3643 2.20377 33.9363 5.70002 33.9363H19.0497C23.1182 33.9363 24.4532 33.1735 24.4532 30.0587V27.8336C24.4531 24.7824 23.1182 23.9559 19.0497 23.9559ZM150.893 17.5354H143.519L143.138 18.2982L151.274 24.2738C152.8 23.3838 154.517 22.4939 156.296 21.6038L150.893 17.5354ZM157.504 28.7237L164.688 33.9363H172.062L172.38 33.237L161.7 25.418C160.301 26.4986 158.839 27.5794 157.504 28.7237Z" fill="white"/>
<path d="M149.812 33.9364H143.138L142.565 33.0463C147.079 28.6601 167.294 9.97066 211.221 8C211.221 8 174.414 9.27132 149.812 33.9364Z" fill="#A7A9AC"/>
</g>
<defs>
<clipPath id="clip0_579_22623">
<rect width="211" height="48" fill="white" transform="translate(0.200195)"/>
</clipPath>
</defs>
</svg>
