<svg width="84" height="32" viewBox="0 0 84 32" fill="none" xmlns="http://www.w3.org/2000/svg">
<g id="Company logo" clip-path="url(#clip0_2034_61042)">
<path id="Vector" d="M43.9278 9.17699C43.9278 10.1117 43.1748 10.8646 42.2401 10.8646C41.3055 10.8646 40.5525 10.1117 40.5525 9.17699C40.5525 8.2423 41.2795 7.48936 42.2401 7.48936C43.2008 7.51532 43.9278 8.26826 43.9278 9.17699ZM36.9696 12.5782C36.9696 12.734 36.9696 12.9936 36.9696 12.9936C36.9696 12.9936 36.1647 11.9551 34.4511 11.9551C31.6211 11.9551 29.4142 14.11 29.4142 17.0958C29.4142 20.0557 31.5951 22.2366 34.4511 22.2366C36.1907 22.2366 36.9696 21.1721 36.9696 21.1721V21.6135C36.9696 21.8212 37.1253 21.977 37.333 21.977H39.4361V12.2147C39.4361 12.2147 37.5148 12.2147 37.333 12.2147C37.1253 12.2147 36.9696 12.3965 36.9696 12.5782ZM36.9696 18.8354C36.5801 19.4066 35.8012 19.8999 34.8665 19.8999C33.2049 19.8999 31.9326 18.8614 31.9326 17.0958C31.9326 15.3303 33.2049 14.2918 34.8665 14.2918C35.7752 14.2918 36.6061 14.8111 36.9696 15.3563V18.8354ZM40.9939 12.2147H43.4864V21.977H40.9939V12.2147ZM78.2255 11.9551C76.5119 11.9551 75.707 12.9936 75.707 12.9936V7.51532H73.2145V21.977C73.2145 21.977 75.1358 21.977 75.3176 21.977C75.5253 21.977 75.6811 21.7952 75.6811 21.6135V21.1721C75.6811 21.1721 76.4859 22.2366 78.1995 22.2366C81.0295 22.2366 83.2364 20.0557 83.2364 17.0958C83.2364 14.136 81.0295 11.9551 78.2255 11.9551ZM77.8101 19.8739C76.8494 19.8739 76.0965 19.3806 75.707 18.8094V15.3303C76.0965 14.8111 76.9273 14.2658 77.8101 14.2658C79.4717 14.2658 80.7439 15.3044 80.7439 17.0699C80.7439 18.8354 79.4717 19.8739 77.8101 19.8739ZM71.9164 16.1871V22.0029H69.4239V16.4727C69.4239 14.863 68.9046 14.2139 67.5026 14.2139C66.7496 14.2139 65.9707 14.6033 65.4774 15.1745V21.977H62.9849V12.2147H64.9582C65.1659 12.2147 65.3217 12.3965 65.3217 12.5782V12.9936C66.0486 12.2407 67.0093 11.9551 67.9699 11.9551C69.0604 11.9551 69.9691 12.2666 70.6961 12.8898C71.5788 13.6167 71.9164 14.5514 71.9164 16.1871ZM56.9355 11.9551C55.2219 11.9551 54.417 12.9936 54.417 12.9936V7.51532H51.9245V21.977C51.9245 21.977 53.8458 21.977 54.0275 21.977C54.2353 21.977 54.391 21.7952 54.391 21.6135V21.1721C54.391 21.1721 55.1959 22.2366 56.9095 22.2366C59.7395 22.2366 61.9464 20.0557 61.9464 17.0958C61.9724 14.136 59.7655 11.9551 56.9355 11.9551ZM56.52 19.8739C55.5594 19.8739 54.8065 19.3806 54.417 18.8094V15.3303C54.8065 14.8111 55.6373 14.2658 56.52 14.2658C58.1817 14.2658 59.4539 15.3044 59.4539 17.0699C59.4539 18.8354 58.1817 19.8739 56.52 19.8739ZM49.7695 11.9551C50.5225 11.9551 50.9119 12.0849 50.9119 12.0849V14.3956C50.9119 14.3956 48.8349 13.6946 47.5367 15.1745V22.0029H45.0442V12.2147C45.0442 12.2147 46.9655 12.2147 47.1472 12.2147C47.3549 12.2147 47.5107 12.3965 47.5107 12.5782V12.9936C47.9781 12.4484 48.9906 11.9551 49.7695 11.9551ZM23.884 21.0942C23.7542 20.7827 23.6243 20.4451 23.4945 20.1595C23.2868 19.6922 23.0791 19.2508 22.8974 18.8354L22.8714 18.8094C21.0799 14.9149 19.1586 10.9685 17.1335 7.07395L17.0556 6.91816C16.8479 6.52871 16.6402 6.1133 16.4325 5.69788C16.1728 5.23054 15.9132 4.73723 15.4978 4.26989C14.6669 3.23135 13.4726 2.66016 12.2004 2.66016C10.9022 2.66016 9.73389 3.23135 8.87709 4.21796C8.48764 4.68531 8.20204 5.17861 7.94241 5.64595C7.7347 6.06137 7.52699 6.47679 7.31929 6.86624L7.2414 7.02202C5.24221 10.9165 3.29495 14.863 1.50347 18.7575L1.47751 18.8094C1.29576 19.2248 1.08806 19.6662 0.880348 20.1336C0.750531 20.4192 0.620713 20.7307 0.490896 21.0683C0.153371 22.0289 0.0495174 22.9376 0.179335 23.8723C0.464933 25.8196 1.76311 27.4553 3.55458 28.1822C4.22963 28.4678 4.93065 28.5977 5.65762 28.5977C5.86533 28.5977 6.12497 28.5717 6.33267 28.5457C7.18947 28.4419 8.07223 28.1563 8.92902 27.663C9.99352 27.0658 11.0061 26.209 12.1485 24.9628C13.2909 26.209 14.3294 27.0658 15.368 27.663C16.2248 28.1563 17.1075 28.4419 17.9643 28.5457C18.172 28.5717 18.4316 28.5977 18.6394 28.5977C19.3663 28.5977 20.0933 28.4678 20.7424 28.1822C22.5598 27.4553 23.832 25.7936 24.1176 23.8723C24.3254 22.9636 24.2215 22.0549 23.884 21.0942ZM12.1745 22.4443C10.7724 20.6788 9.8637 19.0171 9.55214 17.6151C9.42233 17.018 9.39636 16.4987 9.47425 16.0313C9.52618 15.6159 9.68196 15.2524 9.88967 14.9409C10.383 14.2399 11.2138 13.7985 12.1745 13.7985C13.1351 13.7985 13.9919 14.2139 14.4592 14.9409C14.6669 15.2524 14.8227 15.6159 14.8747 16.0313C14.9525 16.4987 14.9266 17.0439 14.7968 17.6151C14.4852 18.9912 13.5765 20.6528 12.1745 22.4443ZM22.5339 23.6646C22.3521 25.0147 21.4434 26.1831 20.1712 26.7023C19.5481 26.962 18.873 27.0398 18.198 26.962C17.5489 26.8841 16.8998 26.6764 16.2248 26.2869C15.2901 25.7676 14.3554 24.9628 13.2649 23.7685C14.9785 21.6654 16.017 19.7441 16.4065 18.0305C16.5882 17.2257 16.6142 16.4987 16.5363 15.8236C16.4325 15.1745 16.1988 14.5774 15.8353 14.0581C15.0304 12.8898 13.6803 12.2147 12.1745 12.2147C10.6686 12.2147 9.31847 12.9157 8.51361 14.0581C8.15012 14.5774 7.91645 15.1745 7.81259 15.8236C7.70874 16.4987 7.7347 17.2516 7.94241 18.0305C8.33186 19.7441 9.39636 21.6914 11.084 23.7944C10.0195 24.9887 9.05884 25.7936 8.12415 26.3129C7.4491 26.7023 6.80002 26.91 6.15093 26.9879C5.44992 27.0658 4.77487 26.962 4.17771 26.7283C2.9055 26.209 1.99678 25.0407 1.81503 23.6906C1.73714 23.0415 1.78907 22.3924 2.0487 21.6654C2.12659 21.4058 2.25641 21.1461 2.38623 20.8346C2.56797 20.4192 2.77568 19.9778 2.98339 19.5364L3.00935 19.4845C4.80083 15.6159 6.72213 11.6695 8.72131 7.82689L8.7992 7.6711C9.00691 7.28165 9.21462 6.86624 9.42233 6.47679C9.63003 6.06137 9.8637 5.67192 10.1493 5.33439C10.6945 4.71127 11.4215 4.37374 12.2264 4.37374C13.0312 4.37374 13.7582 4.71127 14.3035 5.33439C14.5891 5.67192 14.8227 6.06137 15.0304 6.47679C15.2381 6.86624 15.4458 7.28165 15.6536 7.6711L15.7314 7.82689C17.7047 11.6954 19.626 15.6419 21.4174 19.5104V19.5364C21.6252 19.9518 21.8069 20.4192 22.0146 20.8346C22.1444 21.1461 22.2742 21.4058 22.3521 21.6654C22.5598 22.3405 22.6377 22.9895 22.5339 23.6646Z" fill="#FF5A5F"/>
</g>
<defs>
<clipPath id="clip0_2034_61042">
<rect width="83" height="31.125" fill="white" transform="translate(0.127686 0.0664062)"/>
</clipPath>
</defs>
</svg>
