<svg width="111" height="48" viewBox="0 0 111 48" fill="none" xmlns="http://www.w3.org/2000/svg">
<g clip-path="url(#clip0_579_22620)">
<path fill-rule="evenodd" clip-rule="evenodd" d="M68.7347 37.8069C62.3712 42.4973 53.1476 44.9998 45.2062 44.9998C34.0712 44.9998 24.0468 40.8814 16.4629 34.0316C15.8671 33.493 16.4009 32.7589 17.116 33.1784C25.3004 37.9403 35.4201 40.8051 45.8736 40.8051C52.9235 40.8051 60.679 39.3465 67.81 36.3196C68.8873 35.862 69.7882 37.0251 68.7347 37.8069Z" fill="white"/>
<path fill-rule="evenodd" clip-rule="evenodd" d="M71.3803 34.78C70.57 33.7409 66.0035 34.2891 63.9538 34.5322C63.3294 34.6084 63.234 34.065 63.7965 33.6741C67.4335 31.1144 73.4014 31.8533 74.0974 32.7113C74.7933 33.574 73.9162 39.5563 70.4985 42.4115C69.9742 42.8501 69.4737 42.6165 69.7072 42.035C70.4747 40.1187 72.1954 35.8239 71.3803 34.78Z" fill="white"/>
<path fill-rule="evenodd" clip-rule="evenodd" d="M64.0971 15.6036V13.1154C64.0971 12.7388 64.3831 12.4862 64.7263 12.4862H75.8661C76.2236 12.4862 76.5096 12.7436 76.5096 13.1154V15.2461C76.5049 15.6036 76.2046 16.0708 75.6707 16.8096L69.8982 25.0513C72.0432 24.9988 74.3074 25.3182 76.2522 26.4145C76.6908 26.6624 76.8099 27.0247 76.8433 27.3822V30.0373C76.8433 30.3995 76.4429 30.8238 76.0234 30.6045C72.5962 28.8074 68.0439 28.612 64.2544 30.6236C63.8683 30.8333 63.4631 30.4138 63.4631 30.0516V27.53C63.4631 27.1248 63.4679 26.4336 63.8731 25.8187L70.5608 16.2281H64.7406C64.3831 16.2281 64.0971 15.9754 64.0971 15.6036Z" fill="white"/>
<path fill-rule="evenodd" clip-rule="evenodd" d="M23.4608 31.1289H20.0717C19.7475 31.105 19.4901 30.8619 19.4663 30.5521V13.1583C19.4663 12.8104 19.7571 12.5339 20.1194 12.5339H23.2797C23.6086 12.5482 23.8708 12.8008 23.8946 13.1154V15.3892H23.9566C24.7812 13.1917 26.3304 12.1669 28.4182 12.1669C30.5394 12.1669 31.8645 13.1917 32.8179 15.3892C33.6378 13.1917 35.5015 12.1669 37.4988 12.1669C38.9193 12.1669 40.4732 12.7532 41.4218 14.0688C42.4943 15.5322 42.275 17.6581 42.275 19.5219L42.2703 30.4997C42.2703 30.8476 41.9795 31.1289 41.6172 31.1289H38.2329C37.8944 31.105 37.6227 30.8333 37.6227 30.4997V21.2808C37.6227 20.5468 37.6895 18.7163 37.5274 18.0204C37.2748 16.8526 36.5169 16.5236 35.5349 16.5236C34.715 16.5236 33.857 17.0718 33.5091 17.9489C33.1611 18.826 33.1945 20.2941 33.1945 21.2808V30.4997C33.1945 30.8476 32.9037 31.1289 32.5414 31.1289H29.157C28.8138 31.105 28.5469 30.8333 28.5469 30.4997L28.5421 21.2808C28.5421 19.3408 28.8615 16.4855 26.4543 16.4855C24.0185 16.4855 24.1139 19.2693 24.1139 21.2808V30.4997C24.1139 30.8476 23.8231 31.1289 23.4608 31.1289Z" fill="white"/>
<path fill-rule="evenodd" clip-rule="evenodd" d="M86.1001 12.1669C91.129 12.1669 93.8508 16.4855 93.8508 21.9768C93.8508 27.2821 90.843 31.4911 86.1001 31.4911C81.1618 31.4911 78.4734 27.1725 78.4734 21.7909C78.4734 16.3759 81.1952 12.1669 86.1001 12.1669ZM86.1287 15.7181C83.631 15.7181 83.4737 19.1215 83.4737 21.2427C83.4737 23.3686 83.4403 27.9066 86.1001 27.9066C88.7266 27.9066 88.8505 24.2457 88.8505 22.0149C88.8505 20.5468 88.7886 18.7926 88.3453 17.4007C87.9639 16.19 87.206 15.7181 86.1287 15.7181Z" fill="white"/>
<path fill-rule="evenodd" clip-rule="evenodd" d="M100.372 31.1289H96.997C96.6585 31.105 96.3868 30.8333 96.3868 30.4997L96.3821 13.1011C96.4107 12.7818 96.6919 12.5339 97.0351 12.5339H100.176C100.472 12.5482 100.715 12.7484 100.782 13.0201V15.6799H100.844C101.792 13.3013 103.122 12.1669 105.463 12.1669C106.983 12.1669 108.466 12.715 109.419 14.2166C110.306 15.6084 110.306 17.9489 110.306 19.6315V30.5807C110.268 30.8858 109.986 31.1289 109.653 31.1289H106.254C105.944 31.105 105.687 30.8762 105.653 30.5807V21.1331C105.653 19.2311 105.873 16.4474 103.532 16.4474C102.708 16.4474 101.95 17.0003 101.573 17.8393C101.096 18.9022 101.034 19.9605 101.034 21.1331V30.4997C101.03 30.8476 100.734 31.1289 100.372 31.1289Z" fill="white"/>
<path fill-rule="evenodd" clip-rule="evenodd" d="M55.2167 22.8204C55.2167 24.1408 55.2501 25.2419 54.5828 26.4146C54.0441 27.3679 53.1861 27.9542 52.2375 27.9542C50.9362 27.9542 50.1736 26.9627 50.1736 25.4993C50.1736 22.6107 52.7619 22.0864 55.2167 22.0864V22.8204ZM58.6345 31.0812C58.4104 31.2814 58.0863 31.2957 57.8337 31.1622C56.7087 30.2279 56.5037 29.7942 55.8888 28.9028C54.0298 30.7999 52.7094 31.3672 50.3022 31.3672C47.447 31.3672 45.2305 29.6083 45.2305 26.0857C45.2305 23.3353 46.7177 21.4619 48.8436 20.5467C50.6836 19.7364 53.2528 19.5934 55.2167 19.3693V18.9308C55.2167 18.1252 55.2787 17.1719 54.802 16.476C54.3921 15.8515 53.6008 15.5941 52.9001 15.5941C51.6083 15.5941 50.4596 16.2567 50.1783 17.6295C50.1211 17.9346 49.8971 18.2349 49.5872 18.2492L46.303 17.8964C46.0265 17.8345 45.7167 17.6104 45.7977 17.1862C46.5508 13.2012 50.1545 12 53.3768 12C55.0261 12 57.1806 12.4385 58.4819 13.6874C60.1312 15.2271 59.9739 17.2815 59.9739 19.5171V24.7986C59.9739 26.386 60.6317 27.0819 61.2514 27.9399C61.4659 28.245 61.5136 28.612 61.2371 28.8408C60.5459 29.4176 59.3161 30.4901 58.6392 31.0907L58.6345 31.0812Z" fill="white"/>
<path fill-rule="evenodd" clip-rule="evenodd" d="M10.7861 22.8204C10.7861 24.1408 10.8194 25.2419 10.1521 26.4145C9.61346 27.3679 8.76022 27.9542 7.80687 27.9542C6.50556 27.9542 5.74765 26.9627 5.74765 25.4993C5.74765 22.6107 8.33598 22.0864 10.7861 22.0864V22.8204ZM14.2038 31.0812C13.9798 31.2814 13.6556 31.2957 13.403 31.1622C12.2781 30.2279 12.0778 29.7941 11.4582 28.9028C9.59916 30.7999 8.28355 31.3672 5.87159 31.3672C3.02109 31.3672 0.799805 29.6082 0.799805 26.0856C0.799805 23.3352 2.29179 21.4619 4.41297 20.5467C6.25292 19.7364 8.82218 19.5934 10.7861 19.3693V18.9308C10.7861 18.1252 10.848 17.1719 10.3761 16.4759C9.96143 15.8515 9.17015 15.5941 8.47421 15.5941C7.18244 15.5941 6.02889 16.2567 5.74765 17.6295C5.69045 17.9346 5.46642 18.2349 5.16135 18.2492L1.87232 17.8964C1.59585 17.8345 1.29078 17.6104 1.36704 17.1862C2.12495 13.2012 5.72382 12 8.94612 12C10.5954 12 12.75 12.4385 14.0513 13.6874C15.7006 15.2271 15.5432 17.2815 15.5432 19.5171V24.7986C15.5432 26.3859 16.2011 27.0819 16.8207 27.9399C17.04 28.245 17.0877 28.612 16.8112 28.8408C16.12 29.4176 14.8902 30.4901 14.2133 31.0907L14.2038 31.0812Z" fill="white"/>
</g>
<defs>
<clipPath id="clip0_579_22620">
<rect width="110" height="48" fill="white" transform="translate(0.799805)"/>
</clipPath>
</defs>
</svg>
