<svg width="81" height="25" viewBox="0 0 81 25" fill="none" xmlns="http://www.w3.org/2000/svg">
<g id="Amazon.com, Inc." clip-path="url(#clip0_2034_61039)">
<path id="path8" d="M49.7472 19.4191C45.1038 22.8416 38.3735 24.6677 32.5789 24.6677C24.4538 24.6677 17.1392 21.6625 11.6054 16.6644C11.1706 16.2713 11.5602 15.7357 12.0819 16.0418C18.054 19.5165 25.4381 21.6069 33.0658 21.6069C38.2101 21.6069 43.8691 20.5426 49.0724 18.3339C49.8585 18 50.5159 18.8487 49.7472 19.4191Z" fill="#FF9900"/>
<path id="path10" d="M51.6774 17.2097C51.0861 16.4514 47.754 16.8514 46.2584 17.0288C45.8027 17.0845 45.7332 16.688 46.1436 16.4027C48.7975 14.535 53.1522 15.0741 53.66 15.7002C54.1678 16.3297 53.5278 20.6948 51.0339 22.7783C50.6513 23.0983 50.2861 22.9278 50.4566 22.5035C51.0166 21.1053 52.2722 17.9714 51.6774 17.2097Z" fill="#FF9900"/>
<path id="path12" d="M46.3627 3.21614V1.40053C46.3627 1.12575 46.5714 0.941406 46.8219 0.941406H54.9504C55.2113 0.941406 55.42 1.12923 55.42 1.40053V2.95528C55.4165 3.21614 55.1973 3.557 54.8078 4.09612L50.5957 10.1099C52.1609 10.0717 53.813 10.3047 55.2321 11.1047C55.5521 11.2855 55.6391 11.5499 55.6634 11.8107V13.7481C55.6634 14.0124 55.3713 14.322 55.0652 14.162C52.5644 12.8507 49.2427 12.7081 46.4775 14.1759C46.1958 14.329 45.9001 14.0229 45.9001 13.7585V11.9186C45.9001 11.6229 45.9036 11.1186 46.1993 10.6699L51.0792 3.67178H46.8323C46.5714 3.67178 46.3627 3.48744 46.3627 3.21614Z" fill="white"/>
<path id="path14" d="M16.7114 14.5452H14.2384C14.0018 14.5278 13.814 14.3504 13.7966 14.1244V1.43245C13.7966 1.17854 14.0088 0.976805 14.2731 0.976805H16.5792C16.8192 0.987233 17.0105 1.17158 17.0279 1.40114V3.06024H17.0731C17.6748 1.45679 18.8052 0.708984 20.3287 0.708984C21.8765 0.708984 22.8434 1.45679 23.539 3.06024C24.1373 1.45679 25.4973 0.708984 26.9546 0.708984C27.9911 0.708984 29.125 1.1368 29.8172 2.09678C30.5998 3.16459 30.4398 4.71586 30.4398 6.07583L30.4363 14.0861C30.4363 14.34 30.2241 14.5452 29.9598 14.5452H27.4903C27.2433 14.5278 27.0451 14.3296 27.0451 14.0861V7.35928C27.0451 6.82364 27.0937 5.48802 26.9755 4.9802C26.7911 4.12805 26.2381 3.88805 25.5216 3.88805C24.9234 3.88805 24.2973 4.28804 24.0434 4.92803C23.7895 5.56801 23.8138 6.63929 23.8138 7.35928V14.0861C23.8138 14.34 23.6016 14.5452 23.3373 14.5452H20.8678C20.6174 14.5278 20.4226 14.3296 20.4226 14.0861L20.4191 7.35928C20.4191 5.94366 20.6521 3.86022 18.8957 3.86022C17.1183 3.86022 17.1879 5.89148 17.1879 7.35928V14.0861C17.1879 14.34 16.9757 14.5452 16.7114 14.5452Z" fill="white"/>
<path id="path16" d="M62.4181 0.708984C66.0876 0.708984 68.0737 3.86022 68.0737 7.8671C68.0737 11.7383 65.8789 14.8096 62.4181 14.8096C58.8147 14.8096 56.853 11.6583 56.853 7.73145C56.853 3.78022 58.8391 0.708984 62.4181 0.708984ZM62.439 3.30024C60.6164 3.30024 60.5017 5.78366 60.5017 7.33146C60.5017 8.88273 60.4773 12.194 62.4181 12.194C64.3346 12.194 64.425 9.52272 64.425 7.89492C64.425 6.82364 64.3798 5.54367 64.0564 4.52803C63.7781 3.64458 63.2251 3.30024 62.439 3.30024Z" fill="white"/>
<path id="path18" d="M72.8319 14.5452H70.3693C70.1224 14.5278 69.9241 14.3296 69.9241 14.0861L69.9207 1.39071C69.9415 1.15767 70.1467 0.976805 70.3972 0.976805H72.6893C72.9049 0.987233 73.0823 1.13332 73.131 1.33158V3.27241H73.1762C73.8684 1.53679 74.8388 0.708984 76.5466 0.708984C77.6561 0.708984 78.7379 1.10898 79.4335 2.2046C80.0804 3.22024 80.0804 4.92803 80.0804 6.15583V14.1452C80.0526 14.3678 79.8474 14.5452 79.6039 14.5452H77.124C76.8979 14.5278 76.7101 14.3609 76.6857 14.1452V7.25146C76.6857 5.86366 76.8457 3.8324 75.1379 3.8324C74.5362 3.8324 73.9832 4.23587 73.7084 4.84803C73.3606 5.62367 73.3154 6.39582 73.3154 7.25146V14.0861C73.3119 14.34 73.0962 14.5452 72.8319 14.5452Z" fill="white"/>
<path id="use28" d="M39.883 8.48338V7.94774C38.0952 7.94774 36.2066 8.33034 36.2066 10.4381C36.2066 11.5059 36.7596 12.2294 37.7091 12.2294C38.4048 12.2294 39.0274 11.8016 39.4204 11.1059C39.9073 10.2503 39.883 9.44684 39.883 8.48338ZM42.3769 14.5111C42.2134 14.6572 41.9769 14.6676 41.7925 14.5702C40.9717 13.8885 40.8256 13.572 40.3734 12.9215C39.0169 14.3059 38.0569 14.7198 36.297 14.7198C34.217 14.7198 32.5962 13.4363 32.5962 10.8659C32.5962 8.85902 33.6849 7.49209 35.2327 6.82428C36.5752 6.23299 38.45 6.12865 39.883 5.96517V5.64518C39.883 5.05736 39.9282 4.36172 39.5839 3.85391C39.2813 3.39827 38.7039 3.21044 38.1961 3.21044C37.2535 3.21044 36.4118 3.69391 36.2066 4.69563C36.1648 4.91824 36.0013 5.13736 35.7787 5.1478L33.3788 4.89041C33.177 4.84519 32.9544 4.68172 33.0101 4.37216C33.5631 1.4644 36.1892 0.587891 38.5404 0.587891C39.7439 0.587891 41.316 0.907884 42.2656 1.81917C43.469 2.94262 43.3542 4.44172 43.3542 6.07299V9.92683C43.3542 11.0851 43.8342 11.5929 44.2864 12.219C44.4464 12.4416 44.4812 12.7094 44.2794 12.8763C43.7751 13.2972 42.8777 14.0798 42.3838 14.518L42.3769 14.5111Z" fill="white"/>
<path id="path30" d="M7.46283 8.48338V7.94774C5.67504 7.94774 3.78638 8.33034 3.78638 10.4381C3.78638 11.5059 4.33942 12.2294 5.28896 12.2294C5.9846 12.2294 6.60719 11.8016 7.00023 11.1059C7.48717 10.2503 7.46283 9.44684 7.46283 8.48338ZM9.95669 14.5111C9.79322 14.6572 9.5567 14.6676 9.37235 14.5702C8.5515 13.8885 8.40542 13.572 7.95325 12.9215C6.59676 14.3059 5.63678 14.7198 3.87682 14.7198C1.79686 14.7198 0.176025 13.4363 0.176025 10.8659C0.176025 8.85902 1.2647 7.49209 2.81249 6.82428C4.15507 6.23299 6.02982 6.12865 7.46283 5.96517V5.64518C7.46283 5.05736 7.50805 4.36172 7.16371 3.85391C6.8611 3.39827 6.28372 3.21044 5.77591 3.21044C4.83332 3.21044 3.9916 3.69391 3.78638 4.69563C3.74464 4.91824 3.58117 5.13736 3.35857 5.1478L0.958618 4.89041C0.756882 4.84519 0.534278 4.68172 0.589929 4.37216C1.14296 1.4644 3.76899 0.587891 6.12025 0.587891C7.3237 0.587891 8.89584 0.907884 9.84539 1.81917C11.0488 2.94262 10.9341 4.44172 10.9341 6.07299V9.92683C10.9341 11.0851 11.4141 11.5929 11.8662 12.219C12.0262 12.4416 12.061 12.7094 11.8593 12.8763C11.3549 13.2972 10.4576 14.0798 9.96364 14.518L9.95669 14.5111Z" fill="white"/>
</g>
<defs>
<clipPath id="clip0_2034_61039">
<rect width="80" height="24.1459" fill="white" transform="translate(0.127686 0.554688)"/>
</clipPath>
</defs>
</svg>
