<svg width="86" height="106" viewBox="0 0 86 106" fill="none" xmlns="http://www.w3.org/2000/svg">
<path d="M79.665 62.235L76.4733 63.6183C74.97 64.27 73.4316 64.8183 71.87 65.26L71.26 59.6883C71.17 58.8683 71.045 58.0617 70.885 57.2667C69.4583 50.1467 65.2983 44.0667 59.5516 40.035C57.3066 38.4583 54.8183 37.195 52.1583 36.305C49.28 35.3417 46.1983 34.815 42.9983 34.8017C40.365 34.8133 37.81 35.1717 35.3833 35.8367C34.9016 33.3617 34.7833 30.835 35.0366 28.3233C35.055 28.135 35.0766 27.9467 35.1 27.76C37.6716 27.1917 40.3133 26.895 42.9833 26.885H43.0133C46.2616 26.8967 49.4683 27.3333 52.5566 28.1667C55.4016 28.9333 58.1483 30.0367 60.7333 31.4533C63.0583 32.7267 65.2533 34.2533 67.275 36.0167C72.8233 40.855 76.6883 47.1583 78.44 54.1067C78.8316 55.6567 79.1166 57.2383 79.2916 58.8433L79.6633 62.2333L79.665 62.235ZM13.4383 54.9367C14.1066 55.2267 14.79 55.49 15.4716 55.7217C17.0083 49.8467 20.4316 44.7633 25.0516 41.08C24.9916 40.8667 24.9316 40.6533 24.875 40.44C24.175 37.8083 23.7683 35.1033 23.6633 32.3833C21.9283 33.45 20.275 34.6633 18.7216 36.0167C13.585 40.4967 9.8933 46.23 7.9833 52.57L13.4383 54.9367ZM52.9866 26.64C55.6616 27.3617 58.2566 28.37 60.7133 29.64C60.6383 27.6333 60.3933 25.6233 59.9733 23.63C58.5833 17.0317 55.3616 11.03 50.715 6.23833L45.8966 9.685C45.3066 10.1067 44.7333 10.555 44.185 11.0167C48.6083 15.2583 51.3883 20.705 52.3333 26.47C52.5516 26.525 52.77 26.5817 52.9866 26.64ZM69.655 59.8583C69.5766 59.1467 69.4683 58.435 69.3333 57.74C66.8216 58.4283 64.2683 58.7633 61.735 58.7633C58.255 58.7633 54.8166 58.1333 51.5933 56.9267C51.4333 57.0867 51.2733 57.245 51.11 57.4033C49.1383 59.31 46.9533 61.005 44.605 62.4517C46.4183 63.3933 48.32 64.1917 50.295 64.8333C54.0516 66.0533 57.935 66.66 61.8066 66.66C64.6616 66.66 67.5083 66.3283 70.2933 65.6717L69.6566 59.86L69.655 59.8583ZM24.255 58.77C21.2016 58.77 18.115 58.285 15.1116 57.2767C14.33 57.015 13.5533 56.7183 12.785 56.385L7.55663 54.1167C7.16663 55.6633 6.88163 57.2433 6.70663 58.845L6.33496 62.245L9.51663 63.625C11.0233 64.2783 12.5633 64.8267 14.13 65.27C17.4083 66.2 20.7933 66.6667 24.1866 66.6667L24.18 66.66C28.0516 66.66 31.935 66.0533 35.6916 64.8333C38.2583 64 40.7016 62.9017 42.9866 61.5683C45.53 60.0833 47.8783 58.3067 49.9783 56.275C52.2616 54.0683 55.9016 48.79 55.9066 48.78L55.9 48.8117C55.9 48.8117 55.91 48.795 55.915 48.7867C57.2416 46.515 58.3 44.1233 59.0833 41.6583C58.9283 41.545 58.7733 41.4333 58.6166 41.3233C56.525 39.855 54.2333 38.69 51.8033 37.86C51.1766 40.2517 50.2166 42.6 48.91 44.8417L48.9033 44.8367C47.29 47.5483 45.2816 49.9033 42.9883 51.8667C40.87 53.6783 38.5116 55.1567 35.9966 56.275C32.3216 57.9067 28.3166 58.7667 24.2533 58.7667L24.26 58.7717L24.255 58.77ZM33.43 28.17C34.12 21.2767 37.4133 14.705 42.99 9.93333C43.6116 9.4 44.2633 8.89 44.9416 8.405L49.56 5.10167C48.3883 3.99667 47.135 2.96667 45.8066 2.01667L42.9883 0L40.1783 2.01C38.8483 2.96167 37.5916 3.995 36.4183 5.10333C31.1533 10.065 27.5166 16.4967 26.015 23.625C25.4683 26.2233 25.2166 28.85 25.2533 31.46C25.2933 34.3617 25.6916 37.2433 26.4366 40.0417C27.2466 43.0783 28.4633 46.0183 30.0766 48.7817C30.0816 48.79 30.0866 48.7983 30.0916 48.8083C31.4333 51.0667 33.015 53.1583 34.8 55.055C34.975 54.9817 35.1483 54.9083 35.3216 54.8317C37.67 53.7883 39.8466 52.4233 41.795 50.7767C39.9966 49.05 38.405 47.0633 37.08 44.8367C35.4916 42.115 34.4166 39.235 33.8283 36.31C33.2833 33.6067 33.1566 30.8633 33.4266 28.1717L33.43 28.17Z" fill="white"/>
<path d="M3.54004 99.666V96.8096H8.75781C9.85807 96.8096 10.7002 96.5895 11.2842 96.1494C11.8682 95.7008 12.1602 95.0534 12.1602 94.207V94.1816C12.1602 93.6146 12.0247 93.1406 11.7539 92.7598C11.4915 92.3704 11.0938 92.0785 10.5605 91.8838C10.0358 91.6891 9.38411 91.5918 8.60547 91.5918H3.54004V89.002H8.14844C9.22331 89.002 10.0443 88.7861 10.6113 88.3545C11.1784 87.9229 11.4619 87.3135 11.4619 86.5264V86.501C11.4619 85.7646 11.2122 85.1976 10.7129 84.7998C10.2135 84.3936 9.51107 84.1904 8.60547 84.1904H3.54004V81.3467H9.5957C10.7552 81.3467 11.7539 81.5329 12.5918 81.9053C13.4382 82.2777 14.0898 82.8109 14.5469 83.5049C15.0039 84.1904 15.2324 85.0029 15.2324 85.9424V85.9678C15.2324 86.6364 15.0758 87.2585 14.7627 87.834C14.458 88.401 14.0391 88.875 13.5059 89.2559C12.9727 89.6283 12.3717 89.861 11.7031 89.9541V90.043C12.5495 90.1022 13.3027 90.3307 13.9629 90.7285C14.623 91.1178 15.1393 91.6341 15.5117 92.2773C15.8926 92.9121 16.083 93.6273 16.083 94.4229V94.4482C16.083 95.5146 15.8249 96.4372 15.3086 97.2158C14.7923 97.9945 14.0602 98.5996 13.1123 99.0312C12.1729 99.4544 11.0514 99.666 9.74805 99.666H3.54004ZM1.62305 99.666V81.3467H5.45703V99.666H1.62305ZM26.1201 99.9961C24.3089 99.9961 22.7389 99.611 21.4102 98.8408C20.0898 98.0706 19.07 96.9788 18.3506 95.5654C17.6396 94.1436 17.2842 92.4593 17.2842 90.5127V90.4873C17.2842 88.5407 17.6439 86.8607 18.3633 85.4473C19.0827 84.0339 20.1025 82.9421 21.4229 82.1719C22.7516 81.4017 24.3174 81.0166 26.1201 81.0166C27.9313 81.0166 29.4971 81.4017 30.8174 82.1719C32.1377 82.9421 33.1576 84.0339 33.877 85.4473C34.5964 86.8607 34.9561 88.5407 34.9561 90.4873V90.5127C34.9561 92.4593 34.5964 94.1436 33.877 95.5654C33.1576 96.9788 32.1377 98.0706 30.8174 98.8408C29.5055 99.611 27.9398 99.9961 26.1201 99.9961ZM26.1201 96.7461C27.1357 96.7461 28.0075 96.4922 28.7354 95.9844C29.4717 95.4681 30.0387 94.7445 30.4365 93.8135C30.8428 92.8825 31.0459 91.7822 31.0459 90.5127V90.4873C31.0459 89.2093 30.8428 88.1048 30.4365 87.1738C30.0387 86.2428 29.4674 85.5277 28.7227 85.0283C27.9863 84.5205 27.1188 84.2666 26.1201 84.2666C25.1214 84.2666 24.2497 84.5205 23.5049 85.0283C22.7686 85.5277 22.1973 86.2428 21.791 87.1738C21.3932 88.0964 21.1943 89.2008 21.1943 90.4873V90.5127C21.1943 91.7907 21.3932 92.8952 21.791 93.8262C22.1973 94.7572 22.7686 95.4766 23.5049 95.9844C24.2412 96.4922 25.113 96.7461 26.1201 96.7461ZM45.2725 99.9961C43.4613 99.9961 41.8913 99.611 40.5625 98.8408C39.2422 98.0706 38.2223 96.9788 37.5029 95.5654C36.792 94.1436 36.4365 92.4593 36.4365 90.5127V90.4873C36.4365 88.5407 36.7962 86.8607 37.5156 85.4473C38.235 84.0339 39.2549 82.9421 40.5752 82.1719C41.904 81.4017 43.4697 81.0166 45.2725 81.0166C47.0837 81.0166 48.6494 81.4017 49.9697 82.1719C51.29 82.9421 52.3099 84.0339 53.0293 85.4473C53.7487 86.8607 54.1084 88.5407 54.1084 90.4873V90.5127C54.1084 92.4593 53.7487 94.1436 53.0293 95.5654C52.3099 96.9788 51.29 98.0706 49.9697 98.8408C48.6579 99.611 47.0921 99.9961 45.2725 99.9961ZM45.2725 96.7461C46.2881 96.7461 47.1598 96.4922 47.8877 95.9844C48.624 95.4681 49.1911 94.7445 49.5889 93.8135C49.9951 92.8825 50.1982 91.7822 50.1982 90.5127V90.4873C50.1982 89.2093 49.9951 88.1048 49.5889 87.1738C49.1911 86.2428 48.6198 85.5277 47.875 85.0283C47.1387 84.5205 46.2712 84.2666 45.2725 84.2666C44.2738 84.2666 43.402 84.5205 42.6572 85.0283C41.9209 85.5277 41.3496 86.2428 40.9434 87.1738C40.5456 88.0964 40.3467 89.2008 40.3467 90.4873V90.5127C40.3467 91.7907 40.5456 92.8952 40.9434 93.8262C41.3496 94.7572 41.9209 95.4766 42.6572 95.9844C43.3936 96.4922 44.2653 96.7461 45.2725 96.7461ZM62.8633 99.9961C61.4076 99.9961 60.1423 99.7845 59.0674 99.3613C57.9925 98.9297 57.1462 98.3161 56.5283 97.5205C55.9105 96.7165 55.5635 95.7559 55.4873 94.6387L55.4746 94.4229H59.1055L59.1309 94.5752C59.207 95.0407 59.4144 95.4469 59.7529 95.7939C60.0999 96.141 60.5443 96.4118 61.0859 96.6064C61.6361 96.7926 62.2624 96.8857 62.9648 96.8857C63.6673 96.8857 64.2767 96.7884 64.793 96.5938C65.3092 96.3991 65.707 96.1283 65.9863 95.7812C66.2741 95.4258 66.418 95.0153 66.418 94.5498V94.5371C66.418 93.9193 66.1725 93.4368 65.6816 93.0898C65.1992 92.7344 64.3867 92.4382 63.2441 92.2012L61.3145 91.8203C59.4948 91.4564 58.1322 90.8428 57.2266 89.9795C56.321 89.1077 55.8682 87.9821 55.8682 86.6025V86.5898C55.8682 85.4642 56.1686 84.4867 56.7695 83.6572C57.3704 82.8278 58.1956 82.1803 59.2451 81.7148C60.2946 81.2493 61.4964 81.0166 62.8506 81.0166C64.264 81.0166 65.4827 81.2409 66.5068 81.6895C67.5309 82.1296 68.3307 82.7516 68.9062 83.5557C69.4902 84.3512 69.8118 85.2822 69.8711 86.3486L69.8838 86.5771H66.2656L66.2529 86.4248C66.1852 85.9508 66.0033 85.5446 65.707 85.2061C65.4108 84.859 65.0173 84.5924 64.5264 84.4062C64.0439 84.2201 63.4854 84.127 62.8506 84.127C62.1989 84.127 61.6361 84.2243 61.1621 84.4189C60.6882 84.6051 60.3242 84.8633 60.0703 85.1934C59.8249 85.5234 59.7021 85.9085 59.7021 86.3486V86.3613C59.7021 86.9453 59.9434 87.415 60.4258 87.7705C60.9167 88.126 61.6911 88.4095 62.749 88.6211L64.6914 89.0146C65.9694 89.2686 67.0189 89.6198 67.8398 90.0684C68.6608 90.5169 69.266 91.084 69.6553 91.7695C70.0531 92.4466 70.252 93.2633 70.252 94.2197V94.2324C70.252 95.4089 69.9557 96.4287 69.3633 97.292C68.7708 98.1553 67.9245 98.8239 66.8242 99.2979C65.724 99.7633 64.4036 99.9961 62.8633 99.9961ZM76.1377 99.666V84.5078H70.8311V81.3467H85.291V84.5078H79.9717V99.666H76.1377Z" fill="white"/>
</svg>
