<svg width="95" height="48" viewBox="0 0 95 48" fill="none" xmlns="http://www.w3.org/2000/svg">
<g clip-path="url(#clip0_579_22626)">
<path d="M0.599609 8V34.5313L3.99405 34.5444V21.9105H12.1538V18.5678H3.981V11.3296H14.6213V8H0.599609ZM20.7052 13.3957C21.2938 13.3957 21.8583 13.16 22.2746 12.7405C22.6908 12.3209 22.9246 11.7518 22.9246 11.1585C22.9246 10.5651 22.6908 9.99607 22.2746 9.5765C21.8583 9.15694 21.2938 8.92122 20.7052 8.92122C20.1165 8.92122 19.552 9.15694 19.1358 9.5765C18.7196 9.99607 18.4857 10.5651 18.4857 11.1585C18.4857 11.7518 18.7196 12.3209 19.1358 12.7405C19.552 13.16 20.1165 13.3957 20.7052 13.3957ZM18.9949 16.7253V34.5444H22.3893V16.7253H18.9949Z" fill="white"/>
<path fill-rule="evenodd" clip-rule="evenodd" d="M34.9357 16.212C30.4446 16.212 27.3112 20.0417 27.3112 24.5952C27.3112 29.1487 30.4446 32.9783 34.9357 32.9783C36.9985 32.9783 38.6957 32.1887 39.936 30.8727V33.2416C39.9446 33.9494 39.8139 34.6519 39.5516 35.3085C39.2892 35.9651 38.9004 36.5627 38.4075 37.0669C37.9146 37.5711 37.3275 37.9718 36.68 38.2459C36.0325 38.52 35.3376 38.6619 34.6354 38.6636C33.5518 38.6636 32.4812 38.2425 31.6326 37.6371L29.9354 40.5982C31.2478 41.4533 32.7648 41.9355 34.3264 41.994C35.888 42.0524 37.4363 41.6849 38.8079 40.9302C40.1796 40.1756 41.3238 39.0617 42.1197 37.7061C42.9157 36.3506 43.334 34.8036 43.3304 33.2284V16.7385H39.936V18.3309C38.6957 17.0148 36.9985 16.2252 34.9357 16.2252V16.212ZM30.6926 24.5952C30.6926 21.7657 32.8337 19.5416 35.3143 19.5416C37.7948 19.5416 39.9229 21.7789 39.9229 24.5952C39.9229 27.4247 37.7818 29.6356 35.3143 29.6356C32.8337 29.6356 30.6926 27.4247 30.6926 24.5952Z" fill="white"/>
<path d="M55.5243 19.5417C54.5535 19.559 53.6284 19.9608 52.9492 20.6602C52.27 21.3597 51.8912 22.3005 51.8948 23.2792V34.5445H48.5004V16.7254H51.8948V18.3573C52.4027 17.6788 53.0624 17.1308 53.8201 16.758C54.5779 16.3853 55.4123 16.1982 56.2554 16.2121C58.6315 16.2121 60.4593 17.3966 61.5037 19.2127C62.0864 18.3023 62.8839 17.5516 63.8249 17.028C64.7658 16.5044 65.8209 16.224 66.8957 16.2121C70.747 16.2121 73.1623 19.3443 73.1623 23.2266V34.5445H69.794V23.2661C69.7976 22.2873 69.4188 21.3465 68.7396 20.6471C68.0604 19.9476 67.1354 19.5458 66.1646 19.5285C65.1937 19.5458 64.2687 19.9476 63.5895 20.6471C62.9103 21.3465 62.5315 22.2873 62.5351 23.2661V34.5313H59.1407V23.2661C59.1443 22.2896 58.7673 21.3507 58.0909 20.6516C57.4145 19.9525 56.4928 19.5492 55.5243 19.5285V19.5417Z" fill="white"/>
<path fill-rule="evenodd" clip-rule="evenodd" d="M91.2182 18.752C90.4474 17.9418 89.5207 17.2987 88.4948 16.862C87.4689 16.4252 86.3654 16.2041 85.2518 16.2121C80.2124 16.2121 76.6352 20.5024 76.6352 25.6349C76.6352 30.7675 80.2124 35.0577 85.2518 35.0577C86.3651 35.0634 87.4679 34.8412 88.4935 34.4046C89.5191 33.9681 90.446 33.3261 91.2182 32.5178V34.5445H94.5996V16.7254H91.2052V18.752H91.2182ZM80.0166 25.6349C80.0166 22.2395 82.6016 19.5417 85.6174 19.5417C88.6202 19.5417 91.2182 22.2395 91.2182 25.6349C91.2182 29.0303 88.6332 31.715 85.6174 31.715C82.6146 31.715 80.0166 29.0303 80.0166 25.6349Z" fill="white"/>
</g>
<defs>
<clipPath id="clip0_579_22626">
<rect width="94" height="48" fill="white" transform="translate(0.599609)"/>
</clipPath>
</defs>
</svg>
