<svg width="84" height="36" viewBox="0 0 84 36" fill="none" xmlns="http://www.w3.org/2000/svg">
<g id="Company logo" clip-path="url(#clip0_2034_61043)">
<path id="Vector" d="M35.5588 18.84C35.5588 22.75 32.5001 25.6312 28.7462 25.6312C24.9924 25.6312 21.9336 22.75 21.9336 18.84C21.9336 14.9025 24.9924 12.0488 28.7462 12.0488C32.5001 12.0488 35.5588 14.9025 35.5588 18.84ZM32.5766 18.84C32.5766 16.3967 30.8038 14.7249 28.7462 14.7249C26.6887 14.7249 24.9158 16.3967 24.9158 18.84C24.9158 21.2589 26.6887 22.9551 28.7462 22.9551C30.8038 22.9551 32.5766 21.2558 32.5766 18.84Z" fill="#EA4335"/>
<path id="Vector_2" d="M50.2559 18.84C50.2559 22.75 47.1971 25.6312 43.4432 25.6312C39.6894 25.6312 36.6306 22.75 36.6306 18.84C36.6306 14.9055 39.6894 12.0488 43.4432 12.0488C47.1971 12.0488 50.2559 14.9025 50.2559 18.84ZM47.2736 18.84C47.2736 16.3967 45.5008 14.7249 43.4432 14.7249C41.3857 14.7249 39.6129 16.3967 39.6129 18.84C39.6129 21.2589 41.3857 22.9551 43.4432 22.9551C45.5008 22.9551 47.2736 21.2558 47.2736 18.84Z" fill="#FBBC05"/>
<path id="Vector_3" d="M64.3405 12.4591V24.6514C64.3405 29.6667 61.3828 31.7151 57.8861 31.7151C54.5947 31.7151 52.6136 29.5136 51.8665 27.7133L54.463 26.6324C54.9253 27.7378 56.0582 29.0421 57.8831 29.0421C60.1213 29.0421 61.5083 27.6612 61.5083 25.0617V24.085H61.4042C60.7367 24.9086 59.4508 25.6282 57.828 25.6282C54.4324 25.6282 51.3215 22.6704 51.3215 18.8645C51.3215 15.0311 54.4324 12.0488 57.828 12.0488C59.4477 12.0488 60.7337 12.7684 61.4042 13.5675H61.5083V12.4622H64.3405V12.4591ZM61.7196 18.8645C61.7196 16.4732 60.1244 14.7249 58.0944 14.7249C56.0368 14.7249 54.313 16.4732 54.313 18.8645C54.313 21.2313 56.0368 22.9552 58.0944 22.9552C60.1244 22.9552 61.7196 21.2313 61.7196 18.8645Z" fill="#4285F4"/>
<path id="Vector_4" d="M69.0096 5.3125V25.2145H66.1008V5.3125H69.0096Z" fill="#34A853"/>
<path id="Vector_5" d="M80.3449 21.0763L82.6596 22.6195C81.9125 23.7248 80.1122 25.6293 77.0013 25.6293C73.1434 25.6293 70.2622 22.647 70.2622 18.8381C70.2622 14.7995 73.1679 12.0469 76.6676 12.0469C80.1918 12.0469 81.9156 14.8515 82.479 16.3671L82.7882 17.1387L73.7099 20.8987C74.4049 22.2612 75.4857 22.9563 77.0013 22.9563C78.52 22.9563 79.5733 22.2092 80.3449 21.0763ZM73.22 18.6329L79.2885 16.113C78.9548 15.2649 77.9505 14.6739 76.7686 14.6739C75.253 14.6739 73.1434 16.012 73.22 18.6329Z" fill="#EA4335"/>
<path id="Vector_6" d="M10.9231 17.0743V14.1931H20.6322C20.7271 14.6952 20.7761 15.2892 20.7761 15.9322C20.7761 18.0939 20.1852 20.7669 18.2807 22.6714C16.4283 24.6003 14.0615 25.6291 10.9261 25.6291C5.11475 25.6291 0.228027 20.8955 0.228027 15.0841C0.228027 9.27269 5.11475 4.53906 10.9261 4.53906C14.1411 4.53906 16.4314 5.80055 18.1521 7.44476L16.119 9.47783C14.8851 8.32045 13.2133 7.42027 10.9231 7.42027C6.67935 7.42027 3.3603 10.8404 3.3603 15.0841C3.3603 19.3278 6.67935 22.7479 10.9231 22.7479C13.6757 22.7479 15.2434 21.6426 16.2476 20.6383C17.0621 19.8238 17.5979 18.6603 17.8092 17.0712L10.9231 17.0743Z" fill="#4285F4"/>
</g>
<defs>
<clipPath id="clip0_2034_61043">
<rect width="83" height="35.2566" fill="white" transform="translate(0.127686)"/>
</clipPath>
</defs>
</svg>
