<svg width="76" height="76" viewBox="0 0 76 76" fill="none" xmlns="http://www.w3.org/2000/svg">
<g id="Instagram" clip-path="url(#clip0_2034_61223)">
<g id="Container">
<path d="M0.543701 25.2656C0.543701 16.3673 0.543701 11.9182 2.30287 8.53165C3.7853 5.67785 6.11218 3.35097 8.96598 1.86854C12.3525 0.109375 16.8017 0.109375 25.7 0.109375H50.3875C59.2857 0.109375 63.7349 0.109375 67.1214 1.86854C69.9752 3.35097 72.3021 5.67785 73.7845 8.53165C75.5437 11.9182 75.5437 16.3673 75.5437 25.2656V49.9531C75.5437 58.8514 75.5437 63.3006 73.7845 66.6871C72.3021 69.5409 69.9752 71.8678 67.1214 73.3502C63.7349 75.1094 59.2857 75.1094 50.3875 75.1094H25.7C16.8017 75.1094 12.3525 75.1094 8.96598 73.3502C6.11218 71.8678 3.7853 69.5409 2.30287 66.6871C0.543701 63.3006 0.543701 58.8514 0.543701 49.9531V25.2656Z" fill="url(#paint0_radial_2034_61223)"/>
<path d="M0.543701 25.2656C0.543701 16.3673 0.543701 11.9182 2.30287 8.53165C3.7853 5.67785 6.11218 3.35097 8.96598 1.86854C12.3525 0.109375 16.8017 0.109375 25.7 0.109375H50.3875C59.2857 0.109375 63.7349 0.109375 67.1214 1.86854C69.9752 3.35097 72.3021 5.67785 73.7845 8.53165C75.5437 11.9182 75.5437 16.3673 75.5437 25.2656V49.9531C75.5437 58.8514 75.5437 63.3006 73.7845 66.6871C72.3021 69.5409 69.9752 71.8678 67.1214 73.3502C63.7349 75.1094 59.2857 75.1094 50.3875 75.1094H25.7C16.8017 75.1094 12.3525 75.1094 8.96598 73.3502C6.11218 71.8678 3.7853 69.5409 2.30287 66.6871C0.543701 63.3006 0.543701 58.8514 0.543701 49.9531V25.2656Z" fill="url(#paint1_radial_2034_61223)"/>
</g>
<path id="Vector" d="M38.0022 10.3359C30.5956 10.3359 29.6661 10.3683 26.7571 10.5007C23.8538 10.6337 21.872 11.0933 20.138 11.7678C18.3443 12.4643 16.8227 13.3962 15.3069 14.9126C13.7899 16.4286 12.8581 17.9501 12.1592 19.7433C11.4831 21.478 11.0229 23.4604 10.8922 26.3626C10.7621 29.2717 10.728 30.2018 10.728 37.6087C10.728 45.0155 10.761 45.9422 10.8928 48.8513C11.0263 51.7547 11.486 53.7365 12.1598 55.4706C12.8569 57.2643 13.7887 58.7859 15.3052 60.3018C16.8205 61.8189 18.342 62.753 20.1346 63.4496C21.8697 64.124 23.8521 64.5837 26.7548 64.7166C29.6638 64.849 30.5928 64.8814 37.9988 64.8814C45.406 64.8814 46.3326 64.849 49.2416 64.7166C52.145 64.5837 54.129 64.124 55.8642 63.4496C57.6573 62.753 59.1766 61.8189 60.6919 60.3018C62.2089 58.7859 63.1406 57.2643 63.8395 55.4712C64.5099 53.7365 64.9701 51.7541 65.1065 48.8518C65.2372 45.9428 65.2713 45.0155 65.2713 37.6087C65.2713 30.2018 65.2372 29.2723 65.1065 26.3632C64.9701 23.4598 64.5099 21.478 63.8395 19.7439C63.1406 17.9501 62.2089 16.4286 60.6919 14.9126C59.1749 13.3956 57.6579 12.4638 55.8625 11.7678C54.1239 11.0933 52.141 10.6337 49.2377 10.5007C46.3287 10.3683 45.4025 10.3359 37.9937 10.3359H38.0022ZM35.5557 15.2507C36.2818 15.2496 37.092 15.2507 38.0022 15.2507C45.2838 15.2507 46.1468 15.2768 49.0223 15.4075C51.6813 15.5291 53.1245 15.9734 54.0858 16.3467C55.3585 16.8411 56.2659 17.432 57.2198 18.3865C58.1743 19.341 58.7652 20.2501 59.2607 21.5229C59.6339 22.4831 60.0788 23.9263 60.1998 26.5854C60.3305 29.4604 60.3589 30.324 60.3589 37.6024C60.3589 44.8808 60.3305 45.7445 60.1998 48.6195C60.0782 51.2785 59.6339 52.7217 59.2607 53.682C58.7663 54.9547 58.1743 55.8609 57.2198 56.8149C56.2653 57.7695 55.3591 58.3604 54.0858 58.8547C53.1256 59.2297 51.6813 59.6729 49.0223 59.7945C46.1474 59.9251 45.2838 59.9535 38.0022 59.9535C30.72 59.9535 29.857 59.9251 26.9821 59.7945C24.3231 59.6717 22.8799 59.2274 21.918 58.8541C20.6453 58.3598 19.7363 57.7689 18.7818 56.8143C17.8272 55.8598 17.2364 54.953 16.7409 53.6797C16.3676 52.7195 15.9228 51.2763 15.8017 48.6172C15.6711 45.7422 15.6449 44.8785 15.6449 37.5956C15.6449 30.3126 15.6711 29.4536 15.8017 26.5786C15.9233 23.9195 16.3676 22.4763 16.7409 21.5149C17.2352 20.2422 17.8272 19.3331 18.7818 18.3785C19.7363 17.424 20.6453 16.8331 21.918 16.3376C22.8794 15.9626 24.3231 15.5195 26.9821 15.3973C29.4979 15.2837 30.4729 15.2496 35.5557 15.2439V15.2507ZM52.5597 19.7791C50.753 19.7791 49.2871 21.2433 49.2871 23.0507C49.2871 24.8575 50.753 26.3234 52.5597 26.3234C54.3665 26.3234 55.8323 24.8575 55.8323 23.0507C55.8323 21.2439 54.3665 19.778 52.5597 19.778V19.7791ZM38.0022 23.603C30.2678 23.603 23.9969 29.874 23.9969 37.6087C23.9969 45.3433 30.2678 51.6115 38.0022 51.6115C45.7366 51.6115 52.0052 45.3433 52.0052 37.6087C52.0052 29.874 45.7361 23.603 38.0016 23.603H38.0022ZM38.0022 28.5178C43.0225 28.5178 47.0928 32.5876 47.0928 37.6087C47.0928 42.6291 43.0225 46.6996 38.0022 46.6996C32.9813 46.6996 28.9116 42.6291 28.9116 37.6087C28.9116 32.5876 32.9813 28.5178 38.0022 28.5178Z" fill="white"/>
</g>
<defs>
<radialGradient id="paint0_radial_2034_61223" cx="0" cy="0" r="1" gradientUnits="userSpaceOnUse" gradientTransform="translate(20.4657 80.8859) rotate(-90) scale(74.3305 69.1332)">
<stop stop-color="#FFDD55"/>
<stop offset="0.1" stop-color="#FFDD55"/>
<stop offset="0.5" stop-color="#FF543E"/>
<stop offset="1" stop-color="#C837AB"/>
</radialGradient>
<radialGradient id="paint1_radial_2034_61223" cx="0" cy="0" r="1" gradientUnits="userSpaceOnUse" gradientTransform="translate(-12.0192 5.51225) rotate(78.6806) scale(33.2261 136.959)">
<stop stop-color="#3771C8"/>
<stop offset="0.128" stop-color="#3771C8"/>
<stop offset="1" stop-color="#6600FF" stop-opacity="0"/>
</radialGradient>
<clipPath id="clip0_2034_61223">
<rect width="75" height="75" fill="white" transform="translate(0.500977 0.109375)"/>
</clipPath>
</defs>
</svg>
