<svg width="76" height="76" viewBox="0 0 76 76" fill="none" xmlns="http://www.w3.org/2000/svg">
<g id="LinkedIn">
<path id="Container" d="M0.500977 25.2656C0.500977 16.3673 0.500977 11.9182 2.26014 8.53165C3.74257 5.67785 6.06945 3.35097 8.92325 1.86854C12.3098 0.109375 16.7589 0.109375 25.6572 0.109375H50.3447C59.243 0.109375 63.6922 0.109375 67.0787 1.86854C69.9325 3.35097 72.2594 5.67785 73.7418 8.53165C75.501 11.9182 75.501 16.3673 75.501 25.2656V49.9531C75.501 58.8514 75.501 63.3006 73.7418 66.6871C72.2594 69.5409 69.9325 71.8678 67.0787 73.3502C63.6922 75.1094 59.243 75.1094 50.3447 75.1094H25.6572C16.7589 75.1094 12.3098 75.1094 8.92325 73.3502C6.06945 71.8678 3.74257 69.5409 2.26014 66.6871C0.500977 63.3006 0.500977 58.8514 0.500977 49.9531V25.2656Z" fill="#1265BF"/>
<g id="Vector">
<path d="M17.3351 23.4011C20.9284 23.4011 23.8413 20.4882 23.8413 16.8949C23.8413 13.3016 20.9284 10.3887 17.3351 10.3887C13.7418 10.3887 10.8289 13.3016 10.8289 16.8949C10.8289 20.4882 13.7418 23.4011 17.3351 23.4011Z" fill="white"/>
<path d="M29.7999 28.2094H40.5829V33.1492C40.5829 33.1492 43.5089 27.297 51.4704 27.297C58.5724 27.297 64.4556 30.7956 64.4556 41.4596V63.947H53.2815V44.1845C53.2815 37.8937 49.923 37.2018 47.3637 37.2018C42.0525 37.2018 41.1432 41.7831 41.1432 45.0051V63.947H29.7999V28.2094Z" fill="white"/>
<path d="M11.6634 28.2095H23.0068V63.947H11.6634V28.2095Z" fill="white"/>
</g>
</g>
</svg>
