<svg width="84" height="17" viewBox="0 0 84 17" fill="none" xmlns="http://www.w3.org/2000/svg">
<g id="Meta Platforms, Inc." clip-path="url(#clip0_2034_61040)">
<path id="Logo0" d="M2.84707 11.2957C2.84707 12.2571 3.05808 12.9951 3.33387 13.4416C3.69546 14.0265 4.23479 14.2743 4.78462 14.2743C5.49379 14.2743 6.14256 14.0983 7.39281 12.3691C8.39442 10.9832 9.57463 9.03774 10.3687 7.81813L11.7135 5.75188C12.6477 4.31689 13.729 2.72168 14.9688 1.64041C15.9809 0.757874 17.0726 0.267578 18.1714 0.267578C20.0162 0.267578 21.7734 1.3366 23.1182 3.34155C24.5899 5.53738 25.3044 8.30317 25.3044 11.1574C25.3044 12.8542 24.9699 14.1009 24.4008 15.0859C23.851 16.0385 22.7793 16.9902 20.9766 16.9902V14.2743C22.5202 14.2743 22.9054 12.8559 22.9054 11.2327C22.9054 8.91954 22.3661 6.35249 21.178 4.51826C20.3349 3.21723 19.2422 2.42225 18.0401 2.42225C16.7399 2.42225 15.6937 3.40284 14.5179 5.15127C13.8927 6.0802 13.251 7.21226 12.5304 8.48966L11.7372 9.89488C10.1437 12.7202 9.7401 13.3637 8.94337 14.4257C7.54691 16.2854 6.35444 16.9902 4.78462 16.9902C2.92237 16.9902 1.74478 16.1838 1.01547 14.9686C0.420112 13.9783 0.127686 12.6791 0.127686 11.1985L2.84707 11.2957Z" fill="#0081FB"/>
<path id="Logo1" d="M2.27197 3.5333C3.51872 1.61151 5.31793 0.267578 7.38155 0.267578C8.57665 0.267578 9.76474 0.621291 11.0054 1.63428C12.3624 2.74182 13.8088 4.56554 15.6133 7.57123L16.2603 8.64988C17.8222 11.2519 18.7109 12.5906 19.2309 13.2219C19.8998 14.0326 20.3682 14.2743 20.9767 14.2743C22.5203 14.2743 22.9055 12.8559 22.9055 11.2327L25.3045 11.1574C25.3045 12.8542 24.97 14.1009 24.4009 15.0859C23.8511 16.0385 22.7795 16.9902 20.9767 16.9902C19.8561 16.9902 18.8632 16.7468 17.7653 15.711C16.9213 14.916 15.9346 13.5038 15.1755 12.2343L12.9175 8.46251C11.7846 6.56962 10.7453 5.15827 10.1438 4.51914C9.49683 3.83185 8.66507 3.00185 7.33777 3.00185C6.2635 3.00185 5.3512 3.75568 4.58774 4.90875L2.27197 3.5333Z" fill="url(#paint0_linear_2034_61040)"/>
<path id="Logo2" d="M7.33765 3.00185C6.26338 3.00185 5.35108 3.75568 4.58762 4.90875C3.5081 6.53811 2.84707 8.96507 2.84707 11.2957C2.84707 12.2571 3.05808 12.9951 3.33387 13.4416L1.01547 14.9686C0.420112 13.9783 0.127686 12.6791 0.127686 11.1985C0.127686 8.50629 0.866631 5.70023 2.27185 3.5333C3.5186 1.61151 5.31781 0.267578 7.38143 0.267578L7.33765 3.00185Z" fill="url(#paint1_linear_2034_61040)"/>
<path id="Text" d="M30.5908 0.796875H33.7366L39.0852 10.4732L44.4347 0.796875H47.5121V16.6965H44.946V4.51086L40.2549 12.9492H37.8472L33.157 4.51086V16.6965H30.5908V0.796875ZM55.553 6.72507C53.7126 6.72507 52.6042 8.11016 52.3389 9.82531H58.5849C58.4562 8.0585 57.4371 6.72507 55.553 6.72507ZM49.7946 10.8024C49.7946 7.19348 52.127 4.5669 55.5976 4.5669C59.0113 4.5669 61.0495 7.16021 61.0495 10.995V11.6998H52.3389C52.648 13.5656 53.886 14.8228 55.8822 14.8228C57.4748 14.8228 58.4702 14.3369 59.4141 13.4482L60.7773 15.1179C59.4929 16.299 57.8591 16.9801 55.7911 16.9801C52.0342 16.9801 49.7946 14.2406 49.7946 10.8024ZM64.1612 6.95271H61.799V4.85144H64.1612V1.37647H66.6372V4.85144H70.2259V6.95271H66.6372V12.2785C66.6372 14.097 67.2185 14.7432 68.6474 14.7432C69.2996 14.7432 69.6735 14.6871 70.2259 14.5952V16.6737C69.5378 16.8681 68.8811 16.9574 68.1702 16.9574C65.4972 16.9574 64.1612 15.497 64.1612 12.5736V6.95271ZM80.6517 8.99619C80.1544 7.74068 79.0451 6.81613 77.4149 6.81613C75.2961 6.81613 73.9399 8.31941 73.9399 10.7683C73.9399 13.1558 75.1884 14.7318 77.3133 14.7318C78.9838 14.7318 80.1763 13.7599 80.6517 12.5508V8.99619ZM83.1277 16.6965H80.6973V15.0382C80.0178 16.0144 78.7816 16.9801 76.7793 16.9801C73.5591 16.9801 71.407 14.2844 71.407 10.7683C71.407 7.21887 73.6107 4.5669 76.9159 4.5669C78.5496 4.5669 79.8314 5.22004 80.6973 6.37311V4.85144H83.1277V16.6965Z" fill="white"/>
</g>
<defs>
<linearGradient id="paint0_linear_2034_61040" x1="5.46852" y1="10.5112" x2="22.804" y2="11.3868" gradientUnits="userSpaceOnUse">
<stop stop-color="#0064E1"/>
<stop offset="0.4" stop-color="#0064E1"/>
<stop offset="0.83" stop-color="#0073EE"/>
<stop offset="1" stop-color="#0082FB"/>
</linearGradient>
<linearGradient id="paint1_linear_2034_61040" x1="4.06756" y1="12.4374" x2="4.06756" y2="6.04606" gradientUnits="userSpaceOnUse">
<stop stop-color="#0082FB"/>
<stop offset="1" stop-color="#0064E0"/>
</linearGradient>
<clipPath id="clip0_2034_61040">
<rect width="83" height="16.7226" fill="white" transform="translate(0.127686 0.267578)"/>
</clipPath>
</defs>
</svg>
