<svg width="84" height="29" viewBox="0 0 84 29" fill="none" xmlns="http://www.w3.org/2000/svg">
<g id="Company logo" clip-path="url(#clip0_2034_61044)">
<path id="Vector" d="M12.6206 2.22656C5.74471 2.22656 0.17041 7.80071 0.17041 14.6766C0.17041 21.5529 5.74471 27.1266 12.6206 27.1266C19.4973 27.1266 25.071 21.5529 25.071 14.6766C25.071 7.80116 19.4973 2.22716 12.6205 2.22716L12.6206 2.22656ZM18.3302 20.1831C18.1072 20.5489 17.6285 20.6648 17.2628 20.4403C14.3396 18.6548 10.6597 18.2504 6.32587 19.2406C5.90825 19.3357 5.49197 19.0741 5.39682 18.6563C5.30122 18.2385 5.56185 17.8222 5.98051 17.7271C10.7231 16.6436 14.7912 17.1101 18.073 19.1157C18.4388 19.3402 18.5547 19.8174 18.3302 20.1831ZM19.8541 16.7931C19.5731 17.2498 18.9755 17.3941 18.519 17.1131C15.1724 15.056 10.0711 14.4603 6.11268 15.6619C5.59931 15.8169 5.05711 15.5276 4.9013 15.0152C4.74668 14.5018 5.03614 13.9606 5.54861 13.8045C10.0702 12.4326 15.6913 13.0971 19.5345 15.4588C19.9909 15.7398 20.1351 16.3374 19.8541 16.7933V16.7931ZM19.9849 13.2631C15.9723 10.8797 9.35194 10.6606 5.52081 11.8233C4.90561 12.0099 4.25502 11.6626 4.06859 11.0474C3.88215 10.4319 4.22915 9.78177 4.8448 9.59474C9.24266 8.25966 16.5536 8.51761 21.1734 11.2602C21.728 11.5886 21.9094 12.3032 21.5808 12.8559C21.2537 13.4092 20.5371 13.5916 19.9855 13.2631H19.9849ZM34.0434 13.7198C31.8936 13.2072 31.5115 12.8474 31.5115 12.0914C31.5115 11.3772 32.1835 10.8965 33.184 10.8965C34.1534 10.8965 35.1138 11.2615 36.1218 12.0129C36.1515 12.0356 36.1902 12.0447 36.2273 12.0388C36.266 12.0331 36.2987 12.0124 36.321 11.9814L37.3706 10.5018C37.4137 10.4408 37.4019 10.3568 37.3439 10.3103C36.1441 9.34794 34.7942 8.88007 33.2153 8.88007C30.8945 8.88007 29.2725 10.273 29.2725 12.2659C29.2725 14.4031 30.6715 15.1598 33.0889 15.744C35.145 16.2178 35.4929 16.6147 35.4929 17.3242C35.4929 18.1107 34.7912 18.5998 33.6613 18.5998C32.4065 18.5998 31.3821 18.1761 30.2374 17.1859C30.2091 17.1606 30.1705 17.1502 30.1348 17.1517C30.0961 17.1547 30.0619 17.1725 30.0381 17.2008L28.8607 18.6013C28.8116 18.6607 28.8175 18.747 28.874 18.7975C30.2061 19.9869 31.8445 20.6143 33.6137 20.6143C36.1144 20.6143 37.7304 19.248 37.7304 17.1324C37.7349 15.3473 36.6659 14.3586 34.0478 13.7217L34.0434 13.7198ZM43.3889 11.5997C42.3051 11.5997 41.416 12.0267 40.6816 12.9016V11.9168C40.6816 11.8391 40.6191 11.7758 40.5418 11.7758H38.6165C38.5392 11.7758 38.4768 11.8391 38.4768 11.9168V22.8592C38.4768 22.9365 38.5392 23.0005 38.6165 23.0005H40.5418C40.6191 23.0005 40.6816 22.9365 40.6816 22.8592V19.4056C41.416 20.2277 42.3051 20.6306 43.3889 20.6306C45.4034 20.6306 47.4432 19.08 47.4432 16.1156C47.4461 13.1507 45.4063 11.5996 43.3904 11.5996L43.3889 11.5997ZM45.2042 16.1156C45.2042 17.6245 44.275 18.6786 42.9429 18.6786C41.6271 18.6786 40.634 17.5769 40.634 16.1156C40.634 14.6542 41.6271 13.5528 42.9429 13.5528C44.2527 13.5527 45.2042 14.6303 45.2042 16.1155V16.1156ZM52.669 11.5997C50.0746 11.5997 48.0423 13.5973 48.0423 16.1479C48.0423 18.6712 50.0613 20.647 52.6377 20.647C55.241 20.647 57.2793 18.6563 57.2793 16.1156C57.2793 13.5836 55.2544 11.6 52.669 11.6V11.5997ZM52.669 18.6935C51.2893 18.6935 50.2486 17.5844 50.2486 16.1149C50.2486 14.6387 51.2536 13.5675 52.6377 13.5675C54.0263 13.5675 55.073 14.6762 55.073 16.1472C55.073 17.623 54.062 18.6935 52.669 18.6935ZM62.8188 11.7758H60.7002V9.6102C60.7002 9.53259 60.6378 9.46926 60.5605 9.46926H58.6352C58.5579 9.46926 58.4939 9.53259 58.4939 9.6102V11.7758H57.5692C57.4919 11.7758 57.4294 11.8391 57.4294 11.9168V13.5711C57.4294 13.6487 57.4919 13.7122 57.5692 13.7122H58.4939V17.9932C58.4939 19.7223 59.3547 20.5994 61.0541 20.5994C61.7439 20.5994 62.3163 20.4567 62.856 20.1504C62.9006 20.1266 62.9273 20.0791 62.9273 20.0285V18.4526C62.9273 18.405 62.9021 18.3589 62.8604 18.3337C62.8188 18.3069 62.7668 18.3054 62.7236 18.3277C62.3535 18.5136 61.9952 18.5998 61.5937 18.5998C60.9768 18.5998 60.7002 18.3188 60.7002 17.6914V13.7129H62.8188C62.8961 13.7129 62.9585 13.6496 62.9585 13.5719V11.9177C62.9615 11.84 62.8991 11.7766 62.8203 11.7766L62.8188 11.7758ZM70.1989 11.7842V11.5183C70.1989 10.7358 70.4992 10.3869 71.1712 10.3869C71.5726 10.3869 71.8952 10.4665 72.2565 10.587C72.3011 10.6009 72.3472 10.594 72.3829 10.5673C72.42 10.5407 72.4408 10.4981 72.4408 10.4529V8.83086C72.4408 8.76887 72.4022 8.71401 72.3412 8.69572C71.9606 8.58228 71.473 8.46587 70.7415 8.46587C68.9649 8.46587 68.0238 9.46703 68.0238 11.3601V11.7674H67.0991C67.0218 11.7674 66.9578 11.8308 66.9578 11.9084V13.5711C66.9578 13.6487 67.0218 13.7122 67.0991 13.7122H68.0238V20.314C68.0238 20.3928 68.0877 20.4552 68.165 20.4552H70.0889C70.1676 20.4552 70.2301 20.3928 70.2301 20.314V13.7126H72.0275L74.7809 20.314C74.4687 21.0068 74.161 21.1451 73.7417 21.1451C73.4027 21.1451 73.0444 21.044 72.6802 20.8432C72.646 20.8254 72.6044 20.8224 72.5687 20.8328C72.5315 20.8462 72.5003 20.873 72.4854 20.9087L71.8328 22.3404C71.8016 22.4088 71.8283 22.4876 71.8937 22.5232C72.5746 22.8919 73.1887 23.0495 73.9484 23.0495C75.3697 23.0495 76.1562 22.3865 76.8475 20.6054L80.1866 11.9769C80.2045 11.9335 80.1985 11.8844 80.1718 11.8459C80.1465 11.8077 80.1034 11.7847 80.0573 11.7847H78.0532C77.9922 11.7847 77.9387 11.8229 77.9194 11.8792L75.8662 17.742L73.6183 11.8754C73.5975 11.8208 73.5455 11.7847 73.4875 11.7847H70.1989V11.7842ZM65.9201 11.7758H63.9948C63.9175 11.7758 63.8536 11.8391 63.8536 11.9168V20.314C63.8536 20.3928 63.9175 20.4552 63.9948 20.4552H65.9201C65.9974 20.4552 66.0613 20.3928 66.0613 20.314V11.9174C66.0613 11.8397 65.9989 11.7763 65.9201 11.7763V11.7758ZM64.9686 7.95206C64.2059 7.95206 63.5874 8.56935 63.5874 9.33189C63.5874 10.0949 64.2059 10.7129 64.9686 10.7129C65.7313 10.7129 66.3483 10.0949 66.3483 9.33189C66.3483 8.5695 65.7298 7.95206 64.9686 7.95206ZM81.831 14.4758C81.0698 14.4758 80.4765 13.864 80.4765 13.1211C80.4765 12.3782 81.0772 11.7594 81.8384 11.7594C82.5996 11.7594 83.1928 12.371 83.1928 13.1134C83.1928 13.8563 82.5922 14.4758 81.831 14.4758ZM81.8384 11.8941C81.1441 11.8941 80.6193 12.4457 80.6193 13.1211C80.6193 13.7962 81.1411 14.3403 81.831 14.3403C82.5253 14.3403 83.0501 13.7892 83.0501 13.1134C83.0501 12.4382 82.5282 11.8941 81.8384 11.8941ZM82.1387 13.2527L82.5223 13.7891H82.1982L81.8532 13.297H81.5574V13.7891H81.2868V12.3672H81.9202C82.2517 12.3672 82.4688 12.5362 82.4688 12.8208C82.4702 13.0539 82.3349 13.1963 82.1402 13.2527H82.1387ZM81.9097 12.6111H81.5574V13.0609H81.9097C82.0852 13.0609 82.1907 12.9748 82.1907 12.8358C82.1907 12.6895 82.0852 12.6111 81.9097 12.6111Z" fill="#1ED760"/>
</g>
<defs>
<clipPath id="clip0_2034_61044">
<rect width="83" height="28.4571" fill="white" transform="translate(0.127686 0.400391)"/>
</clipPath>
</defs>
</svg>
