<svg width="122" height="31" viewBox="0 0 122 31" fill="none" xmlns="http://www.w3.org/2000/svg">
<path d="M15.0658 30.6284L19.2808 6.92336C23.2984 6.92336 24.5656 7.36391 24.7486 9.16212C24.7486 9.16212 27.4437 8.15721 28.803 6.11628C23.4986 3.65832 18.1688 3.54747 18.1688 3.54747L15.0588 7.3354L15.0658 7.33492L11.9558 3.54688C11.9558 3.54688 6.62599 3.65784 1.32227 6.11581C2.68039 8.15674 5.37657 9.16164 5.37657 9.16164C5.56061 7.36332 6.8263 6.92277 10.8169 6.91992L15.0658 30.6284Z" fill="#E82127"/>
<path d="M15.0643 2.45384C19.3522 2.42105 24.2601 3.11716 29.2844 5.30697C29.9559 4.0983 30.1286 3.56413 30.1286 3.56413C24.6363 1.3912 19.4928 0.64756 15.0637 0.628906C10.6348 0.64756 5.49156 1.39132 0 3.56413C0 3.56413 0.244988 4.22211 0.843557 5.30697C5.86688 3.11716 10.7757 2.42105 15.0637 2.45384H15.0643Z" fill="#E82127"/>
<path d="M38.1287 10.2435C38.3705 11.1868 39.1872 12.1509 40.3077 12.3924H43.6941L43.8669 12.4606V21.006H45.9815V12.4606L46.1737 12.3924H49.5631C50.6961 12.1005 51.4952 11.1868 51.7329 10.2435V10.2227H38.1287V10.2435Z" fill="#E82127"/>
<path d="M59.0579 21.0304H67.1029C68.2222 20.8079 69.054 19.8218 69.2873 18.8672H56.8735C57.1053 19.8221 57.9493 20.8079 59.0579 21.0304Z" fill="#E82127"/>
<path d="M59.0579 16.6473H67.1029C68.2222 16.4266 69.054 15.4401 69.2873 14.4844H56.8735C57.1053 15.4404 57.9493 16.4266 59.0579 16.6473Z" fill="#E82127"/>
<path d="M59.0579 12.3806H67.1029C68.2222 12.1575 69.054 11.172 69.2873 10.2168H56.8735C57.1053 11.172 57.9493 12.1575 59.0579 12.3806Z" fill="#E82127"/>
<path d="M77.406 12.3598H84.8384C85.9589 12.0342 86.8997 11.1806 87.1291 10.2344H75.3226V16.6126H84.9858V18.8509L77.406 18.8569C76.2183 19.1881 75.211 19.9857 74.7085 21.0392L75.3226 21.0278H87.0621V14.492H77.406V12.3598Z" fill="#E82127"/>
<path d="M102.7 21.0315C103.755 20.5842 104.323 19.8104 104.54 18.905H95.1532L95.1592 10.2324L93.0549 10.2384V21.0315H102.7Z" fill="#E82127"/>
<path d="M110.897 12.3895H118.944C120.062 12.1673 120.893 11.1808 121.128 10.2266H108.713C108.945 11.1811 109.789 12.1673 110.897 12.3895Z" fill="#E82127"/>
<path d="M109.038 14.5V21.0263H111.131V16.6811H118.749V21.0263H120.84V14.5113L109.038 14.5Z" fill="#E82127"/>
</svg>
