<svg width="76" height="76" viewBox="0 0 76 76" fill="none" xmlns="http://www.w3.org/2000/svg">
<g id="TikTok" clip-path="url(#clip0_2034_61222)">
<path id="Container" d="M0.500977 25.2656C0.500977 16.3673 0.500977 11.9182 2.26014 8.53165C3.74257 5.67785 6.06945 3.35097 8.92325 1.86854C12.3098 0.109375 16.7589 0.109375 25.6572 0.109375H50.3447C59.243 0.109375 63.6922 0.109375 67.0787 1.86854C69.9325 3.35097 72.2594 5.67785 73.7418 8.53165C75.501 11.9182 75.501 16.3673 75.501 25.2656V49.9531C75.501 58.8514 75.501 63.3006 73.7418 66.6871C72.2594 69.5409 69.9325 71.8678 67.0787 73.3502C63.6922 75.1094 59.243 75.1094 50.3447 75.1094H25.6572C16.7589 75.1094 12.3098 75.1094 8.92325 73.3502C6.06945 71.8678 3.74257 69.5409 2.26014 66.6871C0.500977 63.3006 0.500977 58.8514 0.500977 49.9531V25.2656Z" fill="black"/>
<path id="vector" d="M23.2566 45.0161C23.5618 42.489 24.5983 41.0741 26.5515 39.6236C29.3461 37.6592 32.837 38.7704 32.837 38.7704V32.1783C33.6857 32.1566 34.5347 32.2069 35.3741 32.3286V40.812C35.3741 40.812 31.8843 39.7008 29.0896 41.6662C27.1375 43.1157 26.0989 44.5316 25.7948 47.0588C25.7852 48.431 26.0428 50.2248 27.2287 51.7758C26.9355 51.6255 26.6366 51.4542 26.3321 51.2619C23.7197 49.5077 23.2439 46.8759 23.2566 45.0161ZM49.7882 19.9894C47.8658 17.8828 47.1388 15.7559 46.876 14.2617H49.2944C49.2944 14.2617 48.8122 18.1794 52.3264 22.0321L52.3752 22.0839C51.428 21.4881 50.5594 20.7849 49.7882 19.9894ZM61.4384 25.962V34.2747C61.4384 34.2747 58.3523 34.1539 56.0685 33.5729C52.8796 32.7603 50.83 31.514 50.83 31.514C50.83 31.514 49.4141 30.6252 49.2997 30.5632V47.7292C49.2997 48.685 49.0379 51.0719 48.2399 53.0628C47.1981 55.6671 45.5904 57.3766 45.2948 57.726C45.2948 57.726 43.3395 60.0368 39.8899 61.5929C36.7805 62.9967 34.0505 62.9611 33.2344 62.9967C33.2344 62.9967 28.5152 63.1836 24.2687 60.4238C23.3504 59.8155 22.4932 59.1266 21.7083 58.3659L21.7294 58.3812C25.9771 61.1409 30.6952 60.954 30.6952 60.954C31.5123 60.9185 34.2423 60.954 37.3506 59.5503C40.797 57.9942 42.7555 55.6834 42.7555 55.6834C43.048 55.334 44.6631 53.6245 45.7007 51.0191C46.4966 49.0293 46.7604 46.6413 46.7604 45.6855V28.5216C46.8749 28.5846 48.2897 29.4734 48.2897 29.4734C48.2897 29.4734 50.3404 30.7207 53.5293 31.5323C55.8142 32.1133 58.8992 32.2341 58.8992 32.2341V25.7202C59.9547 25.9569 60.8545 26.0209 61.4384 25.962Z" fill="#FD355A"/>
<path id="vector_2" d="M58.9004 25.7202V32.2321C58.9004 32.2321 55.8153 32.1112 53.5304 31.5302C50.3416 30.7176 48.2909 29.4713 48.2909 29.4713C48.2909 29.4713 46.8761 28.5826 46.7616 28.5196V45.6875C46.7616 46.6433 46.4998 49.0313 45.7018 51.0212C44.6601 53.6265 43.0524 55.336 42.7567 55.6854C42.7567 55.6854 40.8003 57.9962 37.3518 59.5523C34.2435 60.956 31.5135 60.9205 30.6964 60.9561C30.6964 60.9561 25.9782 61.1429 21.7306 58.3832L21.7094 58.368C21.261 57.9337 20.8388 57.4752 20.4451 56.9947C19.0896 55.3421 18.2588 53.3878 18.05 52.8302C18.0496 52.8278 18.0496 52.8254 18.05 52.8231C17.714 51.8541 17.0082 49.527 17.1047 47.2731C17.2753 43.2965 18.6742 40.8557 19.0441 40.2442C20.0236 38.5767 21.2977 37.0848 22.8095 35.8349C24.1436 34.7563 25.6557 33.8981 27.2839 33.2956C29.044 32.5881 30.9288 32.2089 32.8371 32.1783V38.7704C32.8371 38.7704 29.3462 37.6632 26.5526 39.6236C24.5994 41.0741 23.563 42.489 23.2578 45.0161C23.245 46.8759 23.7209 49.5077 26.3311 51.2629C26.6356 51.4559 26.9345 51.6272 27.2277 51.7769C27.6837 52.3696 28.2387 52.8861 28.8704 53.3055C31.4202 54.9195 33.5567 55.0323 36.2888 53.984C38.1106 53.2832 39.482 51.7037 40.1178 49.9536C40.5174 48.8607 40.5121 47.7606 40.5121 46.623V14.2617H46.8708C47.1336 15.7559 47.8606 17.8828 49.7831 19.9894C50.5542 20.7849 51.4228 21.4881 52.37 22.0839C52.6498 22.3734 54.0805 23.8045 55.9171 24.6832C56.8667 25.1373 57.8677 25.4853 58.9004 25.7202Z" fill="white"/>
<path id="vector_3" d="M15.519 50.8066V50.8117L15.6768 51.2393C15.6587 51.1896 15.6001 51.0382 15.519 50.8066Z" fill="#33F3ED"/>
<path id="vector_4" d="M27.2838 33.2967C25.6556 33.8993 24.1435 34.7575 22.8094 35.8361C21.2971 37.0888 20.0234 38.5839 19.0451 40.2545C18.6752 40.864 17.2763 43.3068 17.1057 47.2834C17.0092 49.5373 17.7151 51.8644 18.051 52.8334C18.0506 52.8357 18.0506 52.8381 18.051 52.8405C18.263 53.393 19.0906 55.3473 20.4461 57.005C20.8398 57.4855 21.262 57.944 21.7104 58.3783C20.2736 57.4258 18.9921 56.2743 17.9079 54.9613C16.5641 53.323 15.7354 51.389 15.5192 50.8182C15.5189 50.8141 15.5189 50.81 15.5192 50.806V50.7989C15.1822 49.8309 14.4742 47.5028 14.5728 45.2458C14.7434 41.2692 16.1423 38.8284 16.5122 38.217C17.4902 36.5461 18.764 35.051 20.2765 33.7985C21.6104 32.7196 23.1226 31.8613 24.7509 31.2592C25.7666 30.8553 26.8247 30.5573 27.907 30.3704C29.5379 30.0975 31.2037 30.0739 32.8424 30.3003V32.1794C30.9322 32.2094 29.0456 32.5886 27.2838 33.2967Z" fill="#33F3ED"/>
<path id="vector_5" d="M46.8758 14.2624H40.5171V46.6247C40.5171 47.7623 40.5171 48.8593 40.1229 49.9553C39.4807 51.7044 38.1146 53.2839 36.2939 53.9847C33.5607 55.037 31.4242 54.9202 28.8754 53.3062C28.2427 52.8887 27.6862 52.3739 27.2285 51.7826C29.4 52.8928 31.3436 52.8735 33.7515 51.9472C35.5711 51.2463 36.9393 49.6668 37.5794 47.9167C37.98 46.8238 37.9747 45.7238 37.9747 44.5872V12.2188H46.755C46.755 12.2188 46.6564 13.0232 46.8758 14.2624ZM58.9001 23.92V25.7209C57.8693 25.4856 56.8701 25.1376 55.9221 24.6838C54.0855 23.8052 52.6548 22.3741 52.375 22.0846C52.6997 22.2889 53.0366 22.4747 53.3839 22.6412C55.6169 23.7098 57.8159 24.0287 58.9001 23.92Z" fill="#33F3ED"/>
</g>
<defs>
<clipPath id="clip0_2034_61222">
<rect width="75" height="75" fill="white" transform="translate(0.500977 0.109375)"/>
</clipPath>
</defs>
</svg>
