<svg width="99" height="48" viewBox="0 0 99 48" fill="none" xmlns="http://www.w3.org/2000/svg">
<g clip-path="url(#clip0_579_22618)">
<path fill-rule="evenodd" clip-rule="evenodd" d="M80.1077 20.5972C80.4819 21.2429 80.6043 21.9774 80.6447 22.8032L80.6978 23.9039V31.6007L80.7521 32.7025C80.8607 34.502 82.1878 35.8325 84.0011 35.9457L85.0972 36V23.9039L85.1514 22.8032C85.1965 21.9867 85.3178 21.2382 85.6977 20.588C86.0849 19.921 86.6408 19.3677 87.3095 18.9835C87.9782 18.5993 88.7362 18.3978 89.5074 18.3992C90.2786 18.4006 91.0359 18.6049 91.7031 18.9915C92.3704 19.3781 92.9243 19.9335 93.309 20.6018C93.6833 21.2475 93.7999 21.9959 93.8449 22.8032L93.8992 23.9005V31.6007L93.9535 32.7025C94.0667 34.5112 95.3834 35.8418 97.2025 35.9457L98.2985 36V22.8032C98.2985 20.4697 97.3718 18.2317 95.722 16.5813C94.0723 14.9309 91.8346 14.0032 89.5011 14.0023C88.2521 14.001 87.0172 14.2662 85.8789 14.7803C84.7407 15.2944 83.7252 16.0454 82.9004 16.9833C82.0752 16.0458 81.0597 15.2949 79.9215 14.7807C78.7833 14.2665 77.5486 14.0007 76.2997 14.0012C74.4725 14.0012 72.777 14.5555 71.3726 15.513C70.5156 14.5567 68.5983 14.0012 67.4976 14.0012V36L68.5983 35.9457C70.4393 35.8244 71.7699 34.5297 71.8415 32.7025L71.9004 31.6007V23.9039L71.9547 22.8032C72.0009 21.9728 72.1164 21.2429 72.4917 20.5926C72.8793 19.9261 73.4349 19.3728 74.1031 18.9882C74.7713 18.6035 75.5287 18.4009 76.2997 18.4005C77.0713 18.4006 77.8293 18.6037 78.4977 18.9893C79.166 19.3748 79.7212 19.9294 80.1077 20.5972ZM4.7997 35.9469L5.90039 36H22.3992L22.3449 34.9028C22.196 33.0941 20.9151 31.7728 19.1006 31.655L17.9999 31.6007H8.10178L21.2985 18.3993L21.2443 17.3032C21.1588 15.4761 19.8236 14.1559 17.9999 14.0554L16.8992 14.0058L0.400391 14.0012L0.454675 15.1019C0.599047 16.8932 1.8984 18.2422 3.69785 18.3462L4.7997 18.4005H14.6978L1.50108 31.6018L1.55537 32.7025C1.66394 34.5159 2.97252 35.8291 4.7997 35.9457V35.9469ZM63.1792 17.2212C64.2007 18.2426 65.0111 19.4552 65.564 20.7898C66.1169 22.1244 66.4015 23.5548 66.4015 24.9994C66.4015 26.444 66.1169 27.8744 65.564 29.209C65.0111 30.5436 64.2007 31.7562 63.1792 32.7776C61.1152 34.8399 58.3169 35.9983 55.3992 35.9983C52.4816 35.9983 49.6833 34.8399 47.6193 32.7776C43.324 28.4823 43.324 21.5166 47.6193 17.2212C48.64 16.2002 49.8517 15.3902 51.1854 14.8375C52.5191 14.2848 53.9486 14.0002 55.3923 14C56.8383 13.999 58.2704 14.2831 59.6065 14.836C60.9427 15.3889 62.1567 16.1999 63.1792 17.2224V17.2212ZM60.0665 20.3362C61.3037 21.5744 61.9987 23.2531 61.9987 25.0035C61.9987 26.7538 61.3037 28.4326 60.0665 29.6707C58.8283 30.908 57.1496 31.6029 55.3992 31.6029C53.6489 31.6029 51.9701 30.908 50.732 29.6707C49.4947 28.4326 48.7998 26.7538 48.7998 25.0035C48.7998 23.2531 49.4947 21.5744 50.732 20.3362C51.9701 19.099 53.6489 18.404 55.3992 18.404C57.1496 18.404 58.8283 19.099 60.0665 20.3362ZM32.3066 14C33.7504 14.0004 35.1799 14.2851 36.5136 14.8381C37.8473 15.391 39.0591 16.2012 40.0796 17.2224C44.3761 21.5166 44.3761 28.4834 40.0796 32.7776C38.0157 34.8399 35.2174 35.9983 32.2997 35.9983C29.382 35.9983 26.5837 34.8399 24.5198 32.7776C20.2244 28.4823 20.2244 21.5166 24.5198 17.2212C25.5404 16.2002 26.7522 15.3902 28.0859 14.8375C29.4196 14.2848 30.8491 14.0002 32.2928 14H32.3066ZM36.967 20.3339C38.2045 21.5721 38.8997 23.2511 38.8997 25.0017C38.8997 26.7524 38.2045 28.4314 36.967 29.6696C35.7288 30.9068 34.0501 31.6018 32.2997 31.6018C30.5493 31.6018 28.8706 30.9068 27.6324 29.6696C26.3952 28.4314 25.7002 26.7527 25.7002 25.0023C25.7002 23.252 26.3952 21.5732 27.6324 20.335C28.8706 19.0978 30.5493 18.4028 32.2997 18.4028C34.0501 18.4028 35.7288 19.0978 36.967 20.335V20.3339Z" fill="white"/>
</g>
<defs>
<clipPath id="clip0_579_22618">
<rect width="98" height="48" fill="white" transform="translate(0.400391)"/>
</clipPath>
</defs>
</svg>
