<svg width="84" height="19" viewBox="0 0 84 19" fill="none" xmlns="http://www.w3.org/2000/svg">
<g id="zoom-logo-svg-150px" clip-path="url(#clip0_2034_61041)">
<path id="path833" fill-rule="evenodd" clip-rule="evenodd" d="M67.7051 5.896C68.0224 6.44338 68.1262 7.06616 68.1604 7.76629L68.2055 8.69948V15.225L68.2515 16.1591C68.3435 17.6847 69.4686 18.8128 71.006 18.9088L71.9353 18.9548V8.69948L71.9813 7.76629C72.0195 7.07399 72.1223 6.43946 72.4445 5.88816C72.7728 5.3227 73.244 4.85356 73.811 4.52783C74.3779 4.2021 75.0205 4.03125 75.6744 4.03244C76.3282 4.03363 76.9702 4.20682 77.536 4.53461C78.1017 4.8624 78.5713 5.33326 78.8975 5.89991C79.2147 6.44729 79.3137 7.08182 79.3518 7.76629L79.3979 8.69655V15.225L79.4439 16.1591C79.5398 17.6926 80.6562 18.8206 82.1984 18.9088L83.1277 18.9548V7.76629C83.1277 5.78786 82.342 3.89042 80.9433 2.49119C79.5446 1.09195 77.6475 0.305474 75.669 0.304695C74.6101 0.303579 73.5632 0.52845 72.5981 0.964287C71.633 1.40012 70.7721 2.03689 70.0728 2.83204C69.3732 2.0372 68.5122 1.40059 67.5473 0.964625C66.5823 0.528659 65.5355 0.303352 64.4766 0.303716C62.9275 0.303716 61.49 0.773738 60.2993 1.58551C59.5727 0.774717 57.9472 0.303716 57.014 0.303716V18.9548L57.9472 18.9088C59.5081 18.8059 60.6362 17.7082 60.6969 16.1591L60.7468 15.225V8.69948L60.7928 7.76629C60.832 7.06224 60.9299 6.44338 61.2482 5.89208C61.5767 5.32697 62.0478 4.85794 62.6143 4.53181C63.1808 4.20568 63.8229 4.03387 64.4766 4.03354C65.1308 4.03368 65.7734 4.20583 66.3401 4.53272C66.9067 4.85962 67.3775 5.32976 67.7051 5.896ZM3.85751 18.9097L4.79069 18.9548H18.7787L18.7327 18.0245C18.6064 16.4911 17.5205 15.3709 15.9821 15.271L15.0489 15.225H6.65707L17.8456 4.03256L17.7995 3.10328C17.7271 1.55417 16.5951 0.434931 15.0489 0.349739L14.1157 0.307633L0.127686 0.303716L0.173709 1.23691C0.29611 2.75566 1.39772 3.89938 2.92334 3.98751L3.85751 4.03354H12.2494L1.06087 15.2259L1.1069 16.1591C1.19894 17.6965 2.30839 18.8099 3.85751 18.9088V18.9097ZM53.3528 3.03376C54.2189 3.8997 54.9059 4.92777 55.3747 6.05927C55.8435 7.19076 56.0847 8.40352 56.0847 9.62827C56.0847 10.853 55.8435 12.0658 55.3747 13.1973C54.9059 14.3288 54.2189 15.3568 53.3528 16.2228C51.6029 17.9712 49.2305 18.9534 46.7568 18.9534C44.2831 18.9534 41.9107 17.9712 40.1608 16.2228C36.5191 12.5811 36.5191 6.67545 40.1608 3.03376C41.0262 2.16811 42.0535 1.48139 43.1842 1.0128C44.315 0.544207 45.5269 0.302928 46.7509 0.302737C47.9769 0.301885 49.191 0.54274 50.3238 1.01152C51.4566 1.48031 52.4859 2.16782 53.3528 3.03474V3.03376ZM50.7138 5.6747C51.7627 6.72443 52.352 8.1477 52.352 9.63169C52.352 11.1157 51.7627 12.539 50.7138 13.5887C49.6641 14.6376 48.2408 15.2269 46.7568 15.2269C45.2728 15.2269 43.8495 14.6376 42.7998 13.5887C41.7509 12.539 41.1616 11.1157 41.1616 9.63169C41.1616 8.1477 41.7509 6.72443 42.7998 5.6747C43.8495 4.62575 45.2728 4.03653 46.7568 4.03653C48.2408 4.03653 49.6641 4.62575 50.7138 5.6747ZM27.1784 0.302737C28.4025 0.303056 29.6145 0.54449 30.7452 1.01325C31.876 1.48201 32.9033 2.16892 33.7685 3.03474C37.4112 6.67545 37.4112 12.5821 33.7685 16.2228C32.0187 17.9712 29.6462 18.9534 27.1726 18.9534C24.6989 18.9534 22.3264 17.9712 20.5766 16.2228C16.9349 12.5811 16.9349 6.67545 20.5766 3.03376C21.4419 2.16811 22.4693 1.48139 23.6 1.0128C24.7307 0.544207 25.9427 0.302928 27.1667 0.302737H27.1784ZM31.1295 5.67274C32.1788 6.72251 32.7682 8.146 32.7682 9.63023C32.7682 11.1145 32.1788 12.5379 31.1295 13.5877C30.0798 14.6367 28.6565 15.2259 27.1726 15.2259C25.6886 15.2259 24.2653 14.6367 23.2156 13.5877C22.1666 12.538 21.5774 11.1147 21.5774 9.63071C21.5774 8.14672 22.1666 6.72345 23.2156 5.67372C24.2653 4.62477 25.6886 4.03555 27.1726 4.03555C28.6565 4.03555 30.0798 4.62477 31.1295 5.67372V5.67274Z" fill="#2D8CFF"/>
</g>
<defs>
<clipPath id="clip0_2034_61041">
<rect width="83" height="18.652" fill="white" transform="translate(0.127686 0.302734)"/>
</clipPath>
</defs>
</svg>
